<?xml version="1.0" encoding="utf-8" standalone="no"?>
<!DOCTYPE svg PUBLIC "-//W3C//DTD SVG 1.1//EN"
  "http://www.w3.org/Graphics/SVG/1.1/DTD/svg11.dtd">
<svg xmlns:xlink="http://www.w3.org/1999/xlink" width="460.8pt" height="345.6pt" viewBox="0 0 460.8 345.6" xmlns="http://www.w3.org/2000/svg" version="1.1">
 <metadata>
  <rdf:RDF xmlns:dc="http://purl.org/dc/elements/1.1/" xmlns:cc="http://creativecommons.org/ns#" xmlns:rdf="http://www.w3.org/1999/02/22-rdf-syntax-ns#">
   <cc:Work>
    <dc:type rdf:resource="http://purl.org/dc/dcmitype/StillImage"/>
    <dc:date>2024-07-04T19:58:58.322196</dc:date>
    <dc:format>image/svg+xml</dc:format>
    <dc:creator>
     <cc:Agent>
      <dc:title>Matplotlib v3.8.4, https://matplotlib.org/</dc:title>
     </cc:Agent>
    </dc:creator>
   </cc:Work>
  </rdf:RDF>
 </metadata>
 <defs>
  <style type="text/css">*{stroke-linejoin: round; stroke-linecap: butt}</style>
 </defs>
 <g id="figure_1">
  <g id="patch_1">
   <path d="M 0 345.6 
L 460.8 345.6 
L 460.8 0 
L 0 0 
z
" style="fill: #ffffff"/>
  </g>
  <g id="axes_1">
   <g id="patch_2">
    <path d="M 57.6 307.584 
L 414.72 307.584 
L 414.72 41.472 
L 57.6 41.472 
z
" style="fill: #ffffff"/>
   </g>
   <g id="matplotlib.axis_1">
    <g id="xtick_1">
     <g id="line2d_1">
      <defs>
       <path id="m151b6b733c" d="M 0 0 
L 0 3.5 
" style="stroke: #000000; stroke-width: 0.8"/>
      </defs>
      <g>
       <use xlink:href="#m151b6b733c" x="70.553388" y="307.584" style="stroke: #000000; stroke-width: 0.8"/>
      </g>
     </g>
     <g id="text_1">
      <!-- 0 -->
      <g transform="translate(67.372138 322.182437) scale(0.1 -0.1)">
       <defs>
        <path id="DejaVuSans-30" d="M 2034 4250 
Q 1547 4250 1301 3770 
Q 1056 3291 1056 2328 
Q 1056 1369 1301 889 
Q 1547 409 2034 409 
Q 2525 409 2770 889 
Q 3016 1369 3016 2328 
Q 3016 3291 2770 3770 
Q 2525 4250 2034 4250 
z
M 2034 4750 
Q 2819 4750 3233 4129 
Q 3647 3509 3647 2328 
Q 3647 1150 3233 529 
Q 2819 -91 2034 -91 
Q 1250 -91 836 529 
Q 422 1150 422 2328 
Q 422 3509 836 4129 
Q 1250 4750 2034 4750 
z
" transform="scale(0.015625)"/>
       </defs>
       <use xlink:href="#DejaVuSans-30"/>
      </g>
     </g>
    </g>
    <g id="xtick_2">
     <g id="line2d_2">
      <g>
       <use xlink:href="#m151b6b733c" x="136.140165" y="307.584" style="stroke: #000000; stroke-width: 0.8"/>
      </g>
     </g>
     <g id="text_2">
      <!-- 20 -->
      <g transform="translate(129.777665 322.182437) scale(0.1 -0.1)">
       <defs>
        <path id="DejaVuSans-32" d="M 1228 531 
L 3431 531 
L 3431 0 
L 469 0 
L 469 531 
Q 828 903 1448 1529 
Q 2069 2156 2228 2338 
Q 2531 2678 2651 2914 
Q 2772 3150 2772 3378 
Q 2772 3750 2511 3984 
Q 2250 4219 1831 4219 
Q 1534 4219 1204 4116 
Q 875 4013 500 3803 
L 500 4441 
Q 881 4594 1212 4672 
Q 1544 4750 1819 4750 
Q 2544 4750 2975 4387 
Q 3406 4025 3406 3419 
Q 3406 3131 3298 2873 
Q 3191 2616 2906 2266 
Q 2828 2175 2409 1742 
Q 1991 1309 1228 531 
z
" transform="scale(0.015625)"/>
       </defs>
       <use xlink:href="#DejaVuSans-32"/>
       <use xlink:href="#DejaVuSans-30" x="63.623047"/>
      </g>
     </g>
    </g>
    <g id="xtick_3">
     <g id="line2d_3">
      <g>
       <use xlink:href="#m151b6b733c" x="201.726942" y="307.584" style="stroke: #000000; stroke-width: 0.8"/>
      </g>
     </g>
     <g id="text_3">
      <!-- 40 -->
      <g transform="translate(195.364442 322.182437) scale(0.1 -0.1)">
       <defs>
        <path id="DejaVuSans-34" d="M 2419 4116 
L 825 1625 
L 2419 1625 
L 2419 4116 
z
M 2253 4666 
L 3047 4666 
L 3047 1625 
L 3713 1625 
L 3713 1100 
L 3047 1100 
L 3047 0 
L 2419 0 
L 2419 1100 
L 313 1100 
L 313 1709 
L 2253 4666 
z
" transform="scale(0.015625)"/>
       </defs>
       <use xlink:href="#DejaVuSans-34"/>
       <use xlink:href="#DejaVuSans-30" x="63.623047"/>
      </g>
     </g>
    </g>
    <g id="xtick_4">
     <g id="line2d_4">
      <g>
       <use xlink:href="#m151b6b733c" x="267.313719" y="307.584" style="stroke: #000000; stroke-width: 0.8"/>
      </g>
     </g>
     <g id="text_4">
      <!-- 60 -->
      <g transform="translate(260.951219 322.182437) scale(0.1 -0.1)">
       <defs>
        <path id="DejaVuSans-36" d="M 2113 2584 
Q 1688 2584 1439 2293 
Q 1191 2003 1191 1497 
Q 1191 994 1439 701 
Q 1688 409 2113 409 
Q 2538 409 2786 701 
Q 3034 994 3034 1497 
Q 3034 2003 2786 2293 
Q 2538 2584 2113 2584 
z
M 3366 4563 
L 3366 3988 
Q 3128 4100 2886 4159 
Q 2644 4219 2406 4219 
Q 1781 4219 1451 3797 
Q 1122 3375 1075 2522 
Q 1259 2794 1537 2939 
Q 1816 3084 2150 3084 
Q 2853 3084 3261 2657 
Q 3669 2231 3669 1497 
Q 3669 778 3244 343 
Q 2819 -91 2113 -91 
Q 1303 -91 875 529 
Q 447 1150 447 2328 
Q 447 3434 972 4092 
Q 1497 4750 2381 4750 
Q 2619 4750 2861 4703 
Q 3103 4656 3366 4563 
z
" transform="scale(0.015625)"/>
       </defs>
       <use xlink:href="#DejaVuSans-36"/>
       <use xlink:href="#DejaVuSans-30" x="63.623047"/>
      </g>
     </g>
    </g>
    <g id="xtick_5">
     <g id="line2d_5">
      <g>
       <use xlink:href="#m151b6b733c" x="332.900496" y="307.584" style="stroke: #000000; stroke-width: 0.8"/>
      </g>
     </g>
     <g id="text_5">
      <!-- 80 -->
      <g transform="translate(326.537996 322.182437) scale(0.1 -0.1)">
       <defs>
        <path id="DejaVuSans-38" d="M 2034 2216 
Q 1584 2216 1326 1975 
Q 1069 1734 1069 1313 
Q 1069 891 1326 650 
Q 1584 409 2034 409 
Q 2484 409 2743 651 
Q 3003 894 3003 1313 
Q 3003 1734 2745 1975 
Q 2488 2216 2034 2216 
z
M 1403 2484 
Q 997 2584 770 2862 
Q 544 3141 544 3541 
Q 544 4100 942 4425 
Q 1341 4750 2034 4750 
Q 2731 4750 3128 4425 
Q 3525 4100 3525 3541 
Q 3525 3141 3298 2862 
Q 3072 2584 2669 2484 
Q 3125 2378 3379 2068 
Q 3634 1759 3634 1313 
Q 3634 634 3220 271 
Q 2806 -91 2034 -91 
Q 1263 -91 848 271 
Q 434 634 434 1313 
Q 434 1759 690 2068 
Q 947 2378 1403 2484 
z
M 1172 3481 
Q 1172 3119 1398 2916 
Q 1625 2713 2034 2713 
Q 2441 2713 2670 2916 
Q 2900 3119 2900 3481 
Q 2900 3844 2670 4047 
Q 2441 4250 2034 4250 
Q 1625 4250 1398 4047 
Q 1172 3844 1172 3481 
z
" transform="scale(0.015625)"/>
       </defs>
       <use xlink:href="#DejaVuSans-38"/>
       <use xlink:href="#DejaVuSans-30" x="63.623047"/>
      </g>
     </g>
    </g>
    <g id="xtick_6">
     <g id="line2d_6">
      <g>
       <use xlink:href="#m151b6b733c" x="398.487273" y="307.584" style="stroke: #000000; stroke-width: 0.8"/>
      </g>
     </g>
     <g id="text_6">
      <!-- 100 -->
      <g transform="translate(388.943523 322.182437) scale(0.1 -0.1)">
       <defs>
        <path id="DejaVuSans-31" d="M 794 531 
L 1825 531 
L 1825 4091 
L 703 3866 
L 703 4441 
L 1819 4666 
L 2450 4666 
L 2450 531 
L 3481 531 
L 3481 0 
L 794 0 
L 794 531 
z
" transform="scale(0.015625)"/>
       </defs>
       <use xlink:href="#DejaVuSans-31"/>
       <use xlink:href="#DejaVuSans-30" x="63.623047"/>
       <use xlink:href="#DejaVuSans-30" x="127.246094"/>
      </g>
     </g>
    </g>
    <g id="text_7">
     <!-- Epoch -->
     <g transform="translate(220.849063 335.860562) scale(0.1 -0.1)">
      <defs>
       <path id="DejaVuSans-45" d="M 628 4666 
L 3578 4666 
L 3578 4134 
L 1259 4134 
L 1259 2753 
L 3481 2753 
L 3481 2222 
L 1259 2222 
L 1259 531 
L 3634 531 
L 3634 0 
L 628 0 
L 628 4666 
z
" transform="scale(0.015625)"/>
       <path id="DejaVuSans-70" d="M 1159 525 
L 1159 -1331 
L 581 -1331 
L 581 3500 
L 1159 3500 
L 1159 2969 
Q 1341 3281 1617 3432 
Q 1894 3584 2278 3584 
Q 2916 3584 3314 3078 
Q 3713 2572 3713 1747 
Q 3713 922 3314 415 
Q 2916 -91 2278 -91 
Q 1894 -91 1617 61 
Q 1341 213 1159 525 
z
M 3116 1747 
Q 3116 2381 2855 2742 
Q 2594 3103 2138 3103 
Q 1681 3103 1420 2742 
Q 1159 2381 1159 1747 
Q 1159 1113 1420 752 
Q 1681 391 2138 391 
Q 2594 391 2855 752 
Q 3116 1113 3116 1747 
z
" transform="scale(0.015625)"/>
       <path id="DejaVuSans-6f" d="M 1959 3097 
Q 1497 3097 1228 2736 
Q 959 2375 959 1747 
Q 959 1119 1226 758 
Q 1494 397 1959 397 
Q 2419 397 2687 759 
Q 2956 1122 2956 1747 
Q 2956 2369 2687 2733 
Q 2419 3097 1959 3097 
z
M 1959 3584 
Q 2709 3584 3137 3096 
Q 3566 2609 3566 1747 
Q 3566 888 3137 398 
Q 2709 -91 1959 -91 
Q 1206 -91 779 398 
Q 353 888 353 1747 
Q 353 2609 779 3096 
Q 1206 3584 1959 3584 
z
" transform="scale(0.015625)"/>
       <path id="DejaVuSans-63" d="M 3122 3366 
L 3122 2828 
Q 2878 2963 2633 3030 
Q 2388 3097 2138 3097 
Q 1578 3097 1268 2742 
Q 959 2388 959 1747 
Q 959 1106 1268 751 
Q 1578 397 2138 397 
Q 2388 397 2633 464 
Q 2878 531 3122 666 
L 3122 134 
Q 2881 22 2623 -34 
Q 2366 -91 2075 -91 
Q 1284 -91 818 406 
Q 353 903 353 1747 
Q 353 2603 823 3093 
Q 1294 3584 2113 3584 
Q 2378 3584 2631 3529 
Q 2884 3475 3122 3366 
z
" transform="scale(0.015625)"/>
       <path id="DejaVuSans-68" d="M 3513 2113 
L 3513 0 
L 2938 0 
L 2938 2094 
Q 2938 2591 2744 2837 
Q 2550 3084 2163 3084 
Q 1697 3084 1428 2787 
Q 1159 2491 1159 1978 
L 1159 0 
L 581 0 
L 581 4863 
L 1159 4863 
L 1159 2956 
Q 1366 3272 1645 3428 
Q 1925 3584 2291 3584 
Q 2894 3584 3203 3211 
Q 3513 2838 3513 2113 
z
" transform="scale(0.015625)"/>
      </defs>
      <use xlink:href="#DejaVuSans-45"/>
      <use xlink:href="#DejaVuSans-70" x="63.183594"/>
      <use xlink:href="#DejaVuSans-6f" x="126.660156"/>
      <use xlink:href="#DejaVuSans-63" x="187.841797"/>
      <use xlink:href="#DejaVuSans-68" x="242.822266"/>
     </g>
    </g>
   </g>
   <g id="matplotlib.axis_2">
    <g id="ytick_1">
     <g id="line2d_7">
      <defs>
       <path id="med838e3626" d="M 0 0 
L -3.5 0 
" style="stroke: #000000; stroke-width: 0.8"/>
      </defs>
      <g>
       <use xlink:href="#med838e3626" x="57.6" y="295.488" style="stroke: #000000; stroke-width: 0.8"/>
      </g>
     </g>
     <g id="text_8">
      <!-- 0.0 -->
      <g transform="translate(34.696875 299.287219) scale(0.1 -0.1)">
       <defs>
        <path id="DejaVuSans-2e" d="M 684 794 
L 1344 794 
L 1344 0 
L 684 0 
L 684 794 
z
" transform="scale(0.015625)"/>
       </defs>
       <use xlink:href="#DejaVuSans-30"/>
       <use xlink:href="#DejaVuSans-2e" x="63.623047"/>
       <use xlink:href="#DejaVuSans-30" x="95.410156"/>
      </g>
     </g>
    </g>
    <g id="ytick_2">
     <g id="line2d_8">
      <g>
       <use xlink:href="#med838e3626" x="57.6" y="245.55983" style="stroke: #000000; stroke-width: 0.8"/>
      </g>
     </g>
     <g id="text_9">
      <!-- 0.2 -->
      <g transform="translate(34.696875 249.359049) scale(0.1 -0.1)">
       <use xlink:href="#DejaVuSans-30"/>
       <use xlink:href="#DejaVuSans-2e" x="63.623047"/>
       <use xlink:href="#DejaVuSans-32" x="95.410156"/>
      </g>
     </g>
    </g>
    <g id="ytick_3">
     <g id="line2d_9">
      <g>
       <use xlink:href="#med838e3626" x="57.6" y="195.63166" style="stroke: #000000; stroke-width: 0.8"/>
      </g>
     </g>
     <g id="text_10">
      <!-- 0.4 -->
      <g transform="translate(34.696875 199.430878) scale(0.1 -0.1)">
       <use xlink:href="#DejaVuSans-30"/>
       <use xlink:href="#DejaVuSans-2e" x="63.623047"/>
       <use xlink:href="#DejaVuSans-34" x="95.410156"/>
      </g>
     </g>
    </g>
    <g id="ytick_4">
     <g id="line2d_10">
      <g>
       <use xlink:href="#med838e3626" x="57.6" y="145.703489" style="stroke: #000000; stroke-width: 0.8"/>
      </g>
     </g>
     <g id="text_11">
      <!-- 0.6 -->
      <g transform="translate(34.696875 149.502708) scale(0.1 -0.1)">
       <use xlink:href="#DejaVuSans-30"/>
       <use xlink:href="#DejaVuSans-2e" x="63.623047"/>
       <use xlink:href="#DejaVuSans-36" x="95.410156"/>
      </g>
     </g>
    </g>
    <g id="ytick_5">
     <g id="line2d_11">
      <g>
       <use xlink:href="#med838e3626" x="57.6" y="95.775319" style="stroke: #000000; stroke-width: 0.8"/>
      </g>
     </g>
     <g id="text_12">
      <!-- 0.8 -->
      <g transform="translate(34.696875 99.574538) scale(0.1 -0.1)">
       <use xlink:href="#DejaVuSans-30"/>
       <use xlink:href="#DejaVuSans-2e" x="63.623047"/>
       <use xlink:href="#DejaVuSans-38" x="95.410156"/>
      </g>
     </g>
    </g>
    <g id="ytick_6">
     <g id="line2d_12">
      <g>
       <use xlink:href="#med838e3626" x="57.6" y="45.847149" style="stroke: #000000; stroke-width: 0.8"/>
      </g>
     </g>
     <g id="text_13">
      <!-- 1.0 -->
      <g transform="translate(34.696875 49.646368) scale(0.1 -0.1)">
       <use xlink:href="#DejaVuSans-31"/>
       <use xlink:href="#DejaVuSans-2e" x="63.623047"/>
       <use xlink:href="#DejaVuSans-30" x="95.410156"/>
      </g>
     </g>
    </g>
    <g id="text_14">
     <!-- F-Measure -->
     <g transform="translate(28.617187 200.455344) rotate(-90) scale(0.1 -0.1)">
      <defs>
       <path id="DejaVuSans-46" d="M 628 4666 
L 3309 4666 
L 3309 4134 
L 1259 4134 
L 1259 2759 
L 3109 2759 
L 3109 2228 
L 1259 2228 
L 1259 0 
L 628 0 
L 628 4666 
z
" transform="scale(0.015625)"/>
       <path id="DejaVuSans-2d" d="M 313 2009 
L 1997 2009 
L 1997 1497 
L 313 1497 
L 313 2009 
z
" transform="scale(0.015625)"/>
       <path id="DejaVuSans-4d" d="M 628 4666 
L 1569 4666 
L 2759 1491 
L 3956 4666 
L 4897 4666 
L 4897 0 
L 4281 0 
L 4281 4097 
L 3078 897 
L 2444 897 
L 1241 4097 
L 1241 0 
L 628 0 
L 628 4666 
z
" transform="scale(0.015625)"/>
       <path id="DejaVuSans-65" d="M 3597 1894 
L 3597 1613 
L 953 1613 
Q 991 1019 1311 708 
Q 1631 397 2203 397 
Q 2534 397 2845 478 
Q 3156 559 3463 722 
L 3463 178 
Q 3153 47 2828 -22 
Q 2503 -91 2169 -91 
Q 1331 -91 842 396 
Q 353 884 353 1716 
Q 353 2575 817 3079 
Q 1281 3584 2069 3584 
Q 2775 3584 3186 3129 
Q 3597 2675 3597 1894 
z
M 3022 2063 
Q 3016 2534 2758 2815 
Q 2500 3097 2075 3097 
Q 1594 3097 1305 2825 
Q 1016 2553 972 2059 
L 3022 2063 
z
" transform="scale(0.015625)"/>
       <path id="DejaVuSans-61" d="M 2194 1759 
Q 1497 1759 1228 1600 
Q 959 1441 959 1056 
Q 959 750 1161 570 
Q 1363 391 1709 391 
Q 2188 391 2477 730 
Q 2766 1069 2766 1631 
L 2766 1759 
L 2194 1759 
z
M 3341 1997 
L 3341 0 
L 2766 0 
L 2766 531 
Q 2569 213 2275 61 
Q 1981 -91 1556 -91 
Q 1019 -91 701 211 
Q 384 513 384 1019 
Q 384 1609 779 1909 
Q 1175 2209 1959 2209 
L 2766 2209 
L 2766 2266 
Q 2766 2663 2505 2880 
Q 2244 3097 1772 3097 
Q 1472 3097 1187 3025 
Q 903 2953 641 2809 
L 641 3341 
Q 956 3463 1253 3523 
Q 1550 3584 1831 3584 
Q 2591 3584 2966 3190 
Q 3341 2797 3341 1997 
z
" transform="scale(0.015625)"/>
       <path id="DejaVuSans-73" d="M 2834 3397 
L 2834 2853 
Q 2591 2978 2328 3040 
Q 2066 3103 1784 3103 
Q 1356 3103 1142 2972 
Q 928 2841 928 2578 
Q 928 2378 1081 2264 
Q 1234 2150 1697 2047 
L 1894 2003 
Q 2506 1872 2764 1633 
Q 3022 1394 3022 966 
Q 3022 478 2636 193 
Q 2250 -91 1575 -91 
Q 1294 -91 989 -36 
Q 684 19 347 128 
L 347 722 
Q 666 556 975 473 
Q 1284 391 1588 391 
Q 1994 391 2212 530 
Q 2431 669 2431 922 
Q 2431 1156 2273 1281 
Q 2116 1406 1581 1522 
L 1381 1569 
Q 847 1681 609 1914 
Q 372 2147 372 2553 
Q 372 3047 722 3315 
Q 1072 3584 1716 3584 
Q 2034 3584 2315 3537 
Q 2597 3491 2834 3397 
z
" transform="scale(0.015625)"/>
       <path id="DejaVuSans-75" d="M 544 1381 
L 544 3500 
L 1119 3500 
L 1119 1403 
Q 1119 906 1312 657 
Q 1506 409 1894 409 
Q 2359 409 2629 706 
Q 2900 1003 2900 1516 
L 2900 3500 
L 3475 3500 
L 3475 0 
L 2900 0 
L 2900 538 
Q 2691 219 2414 64 
Q 2138 -91 1772 -91 
Q 1169 -91 856 284 
Q 544 659 544 1381 
z
M 1991 3584 
L 1991 3584 
z
" transform="scale(0.015625)"/>
       <path id="DejaVuSans-72" d="M 2631 2963 
Q 2534 3019 2420 3045 
Q 2306 3072 2169 3072 
Q 1681 3072 1420 2755 
Q 1159 2438 1159 1844 
L 1159 0 
L 581 0 
L 581 3500 
L 1159 3500 
L 1159 2956 
Q 1341 3275 1631 3429 
Q 1922 3584 2338 3584 
Q 2397 3584 2469 3576 
Q 2541 3569 2628 3553 
L 2631 2963 
z
" transform="scale(0.015625)"/>
      </defs>
      <use xlink:href="#DejaVuSans-46"/>
      <use xlink:href="#DejaVuSans-2d" x="57.519531"/>
      <use xlink:href="#DejaVuSans-4d" x="93.603516"/>
      <use xlink:href="#DejaVuSans-65" x="179.882812"/>
      <use xlink:href="#DejaVuSans-61" x="241.40625"/>
      <use xlink:href="#DejaVuSans-73" x="302.685547"/>
      <use xlink:href="#DejaVuSans-75" x="354.785156"/>
      <use xlink:href="#DejaVuSans-72" x="418.164062"/>
      <use xlink:href="#DejaVuSans-65" x="457.027344"/>
     </g>
    </g>
   </g>
   <g id="line2d_13">
    <path d="M 73.832727 164.899079 
L 77.112066 151.599665 
L 80.391405 149.250299 
L 83.670744 140.933282 
L 86.950083 145.129602 
L 90.229421 143.930553 
L 93.50876 128.202894 
L 96.788099 129.476834 
L 100.067438 125.144831 
L 103.346777 129.698418 
L 106.626116 117.671193 
L 109.905455 119.189909 
L 113.184793 116.826864 
L 116.464132 119.938418 
L 119.743471 116.293745 
L 123.02281 114.246659 
L 126.302149 110.939749 
L 129.581488 116.187941 
L 132.860826 110.515329 
L 136.140165 109.87607 
L 139.419504 110.384983 
L 142.698843 115.885277 
L 145.978182 111.46703 
L 149.257521 112.841163 
L 152.53686 109.692079 
L 155.816198 112.092626 
L 159.095537 116.538881 
L 162.374876 103.74578 
L 165.654215 106.1557 
L 168.933554 107.617726 
L 172.212893 110.515329 
L 175.492231 105.535713 
L 178.77157 103.111092 
L 182.050909 103.57191 
L 185.330248 105.495848 
L 188.609587 102.025642 
L 191.888926 101.489989 
L 195.168264 104.933741 
L 198.447603 102.822238 
L 201.726942 102.432409 
L 205.006281 99.781901 
L 208.28562 104.195159 
L 211.564959 101.489989 
L 214.844298 101.489989 
L 218.123636 101.364857 
L 221.402975 100.280116 
L 224.682314 98.986626 
L 227.961653 101.364857 
L 231.240992 98.962224 
L 234.520331 97.470411 
L 237.799669 96.699915 
L 241.079008 97.919474 
L 244.358347 95.620982 
L 247.637686 100.280116 
L 250.917025 97.457432 
L 254.196364 92.630238 
L 257.475702 96.402361 
L 260.755041 102.600567 
L 264.03438 93.397787 
L 267.313719 95.930617 
L 270.593058 96.840859 
L 273.872397 91.454612 
L 277.151736 94.856396 
L 280.431074 95.467595 
L 283.710413 95.465206 
L 286.989752 91.667305 
L 290.269091 98.462037 
L 293.54843 92.364078 
L 296.827769 90.183364 
L 300.107107 92.337386 
L 303.386446 91.731293 
L 306.665785 91.522762 
L 309.945124 89.245638 
L 313.224463 89.139809 
L 316.503802 89.348145 
L 319.78314 91.41342 
L 323.062479 95.775319 
L 326.341818 88.698886 
L 329.621157 86.242109 
L 332.900496 86.987961 
L 336.179835 90.634509 
L 339.459174 88.970529 
L 342.738512 88.585663 
L 346.017851 90.175898 
L 349.29719 92.457308 
L 352.576529 87.38802 
L 355.855868 88.238992 
L 359.135207 87.653033 
L 362.414545 87.786812 
L 365.693884 83.914373 
L 368.973223 87.38802 
L 372.252562 86.523454 
L 375.531901 88.045523 
L 378.81124 84.409557 
L 382.090579 85.853696 
L 385.369917 80.690289 
L 388.649256 82.906394 
L 391.928595 87.38802 
L 395.207934 86.856731 
L 398.487273 85.053565 
" clip-path="url(#p899e72f134)" style="fill: none; stroke: #ff6347; stroke-width: 1.5; stroke-linecap: square"/>
   </g>
   <g id="line2d_14">
    <path d="M 73.832727 158.815938 
L 77.112066 143.706363 
L 80.391405 138.47008 
L 83.670744 133.414392 
L 86.950083 120.707275 
L 90.229421 121.824799 
L 93.50876 115.667545 
L 96.788099 125.585013 
L 100.067438 112.105713 
L 103.346777 105.581405 
L 106.626116 114.408171 
L 109.905455 100.024525 
L 113.184793 106.459537 
L 116.464132 103.29588 
L 119.743471 107.234243 
L 123.02281 106.71848 
L 126.302149 102.217664 
L 129.581488 109.269419 
L 132.860826 107.234243 
L 136.140165 97.212101 
L 139.419504 103.83049 
L 142.698843 95.341789 
L 145.978182 89.945383 
L 149.257521 88.450528 
L 152.53686 98.346727 
L 155.816198 95.775319 
L 159.095537 96.206975 
L 162.374876 90.730571 
L 165.654215 90.864352 
L 168.933554 101.008583 
L 172.212893 95.341789 
L 175.492231 88.140127 
L 178.77157 90.120266 
L 182.050909 92.677855 
L 185.330248 96.064339 
L 188.609587 90.730571 
L 191.888926 88.578466 
L 195.168264 89.018123 
L 198.447603 92.076936 
L 201.726942 86.69747 
L 205.006281 95.046441 
L 208.28562 85.223883 
L 211.564959 93.116423 
L 214.844298 87.642224 
L 218.123636 89.459105 
L 221.402975 88.888675 
L 224.682314 82.615956 
L 227.961653 86.946557 
L 231.240992 86.062848 
L 234.520331 84.697266 
L 237.799669 91.940364 
L 241.079008 85.545388 
L 244.358347 85.545388 
L 247.637686 81.953835 
L 250.917025 85.545388 
L 254.196364 94.610814 
L 257.475702 83.273984 
L 260.755041 92.240581 
L 264.03438 82.398925 
L 267.313719 83.485308 
L 270.593058 87.642224 
L 273.872397 83.601475 
L 277.151736 85.865911 
L 280.431074 81.062943 
L 283.710413 93.572606 
L 286.989752 85.545388 
L 290.269091 81.953835 
L 293.54843 80.617158 
L 296.827769 81.287582 
L 300.107107 86.380641 
L 303.386446 79.603616 
L 306.665785 84.253434 
L 309.945124 77.892963 
L 313.224463 81.953835 
L 316.503802 83.927957 
L 319.78314 79.263641 
L 323.062479 81.621227 
L 326.341818 82.615956 
L 329.621157 77.892963 
L 332.900496 82.615956 
L 336.179835 85.103649 
L 339.459174 80.617158 
L 342.738512 81.287582 
L 346.017851 77.892963 
L 349.29719 83.273984 
L 352.576529 77.547574 
L 355.855868 87.138276 
L 359.135207 76.853497 
L 362.414545 80.617158 
L 365.693884 79.263641 
L 368.973223 74.389018 
L 372.252562 75.098806 
L 375.531901 77.201087 
L 378.81124 81.287582 
L 382.090579 80.952894 
L 385.369917 76.853497 
L 388.649256 81.621227 
L 391.928595 78.922593 
L 395.207934 74.744482 
L 398.487273 76.853497 
" clip-path="url(#p899e72f134)" style="fill: none; stroke: #ff0000; stroke-width: 1.5; stroke-linecap: square"/>
   </g>
   <g id="line2d_15">
    <path d="M 73.832727 166.992899 
L 77.112066 163.44244 
L 80.391405 159.745787 
L 83.670744 158.080641 
L 86.950083 152.599645 
L 90.229421 148.540317 
L 93.50876 142.444774 
L 96.788099 136.678914 
L 100.067438 134.722932 
L 103.346777 132.597345 
L 106.626116 129.681763 
L 109.905455 126.689393 
L 113.184793 123.05566 
L 116.464132 121.51549 
L 119.743471 118.920829 
L 123.02281 117.788802 
L 126.302149 114.241903 
L 129.581488 113.177669 
L 132.860826 111.616552 
L 136.140165 114.737111 
L 139.419504 109.758032 
L 142.698843 106.255868 
L 145.978182 104.52186 
L 149.257521 104.368298 
L 152.53686 107.093326 
L 155.816198 102.88675 
L 159.095537 100.865447 
L 162.374876 103.57191 
L 165.654215 102.072566 
L 168.933554 102.1202 
L 172.212893 101.152199 
L 175.492231 98.87164 
L 178.77157 100.85276 
L 182.050909 98.09756 
L 185.330248 98.26008 
L 188.609587 99.314142 
L 191.888926 99.287086 
L 195.168264 99.451013 
L 198.447603 96.857354 
L 201.726942 98.920401 
L 205.006281 97.197324 
L 208.28562 94.970026 
L 211.564959 98.279553 
L 214.844298 96.555447 
L 218.123636 95.935602 
L 221.402975 97.987327 
L 224.682314 96.56159 
L 227.961653 95.139292 
L 231.240992 95.296774 
L 234.520331 96.091821 
L 237.799669 94.982809 
L 241.079008 95.455267 
L 244.358347 95.934326 
L 247.637686 94.488925 
L 250.917025 94.478484 
L 254.196364 94.478484 
L 257.475702 95.613477 
L 260.755041 95.612155 
L 264.03438 93.032899 
L 267.313719 96.427975 
L 270.593058 96.900914 
L 273.872397 95.447384 
L 277.151736 92.046917 
L 280.431074 89.853032 
L 283.710413 94.95006 
L 286.989752 95.276868 
L 290.269091 91.716118 
L 293.54843 92.833561 
L 296.827769 93.475996 
L 300.107107 91.311542 
L 303.386446 93.12133 
L 306.665785 91.985392 
L 309.945124 91.682846 
L 313.224463 94.618044 
L 316.503802 93.143192 
L 319.78314 93.143192 
L 323.062479 95.610811 
L 326.341818 93.278911 
L 329.621157 94.618044 
L 332.900496 92.107807 
L 336.179835 94.627545 
L 339.459174 91.274282 
L 342.738512 95.107384 
L 346.017851 92.784613 
L 349.29719 93.597245 
L 352.576529 94.284926 
L 355.855868 90.633215 
L 359.135207 93.597245 
L 362.414545 92.291958 
L 365.693884 90.633215 
L 368.973223 91.985392 
L 372.252562 93.076499 
L 375.531901 94.259793 
L 378.81124 94.780073 
L 382.090579 92.784613 
L 385.369917 92.575875 
L 388.649256 93.93542 
L 391.928595 93.597245 
L 395.207934 92.784613 
L 398.487273 93.758019 
" clip-path="url(#p899e72f134)" style="fill: none; stroke: #add8e6; stroke-width: 1.5; stroke-linecap: square"/>
   </g>
   <g id="line2d_16">
    <path d="M 73.832727 170.200082 
L 77.112066 168.415354 
L 80.391405 160.753121 
L 83.670744 154.929347 
L 86.950083 153.075434 
L 90.229421 151.560984 
L 93.50876 148.435298 
L 96.788099 145.820417 
L 100.067438 144.100564 
L 103.346777 140.772312 
L 106.626116 135.641435 
L 109.905455 135.469765 
L 113.184793 134.510524 
L 116.464132 130.56398 
L 119.743471 132.236858 
L 123.02281 128.41066 
L 126.302149 126.160559 
L 129.581488 126.217725 
L 132.860826 120.157251 
L 136.140165 119.230586 
L 139.419504 117.37346 
L 142.698843 115.522506 
L 145.978182 112.893549 
L 149.257521 112.370356 
L 152.53686 109.523656 
L 155.816198 109.523656 
L 159.095537 108.991599 
L 162.374876 105.462875 
L 165.654215 106.968655 
L 168.933554 105.715769 
L 172.212893 107.79369 
L 175.492231 103.340193 
L 178.77157 102.929661 
L 182.050909 100.683772 
L 185.330248 102.442746 
L 188.609587 100.384073 
L 191.888926 98.753766 
L 195.168264 98.26008 
L 198.447603 99.25684 
L 201.726942 94.834757 
L 205.006281 95.93307 
L 208.28562 95.139292 
L 211.564959 96.091821 
L 214.844298 93.855005 
L 218.123636 95.144315 
L 221.402975 94.488925 
L 224.682314 93.684929 
L 227.961653 93.99506 
L 231.240992 94.4992 
L 234.520331 94.321101 
L 237.799669 93.010567 
L 241.079008 93.513201 
L 244.358347 93.667961 
L 247.637686 91.012434 
L 250.917025 93.032899 
L 254.196364 92.809289 
L 257.475702 89.173247 
L 260.755041 91.348191 
L 264.03438 91.348191 
L 267.313719 92.016406 
L 270.593058 91.649024 
L 273.872397 90.633215 
L 277.151736 90.246361 
L 280.431074 89.461607 
L 283.710413 90.932788 
L 286.989752 93.099102 
L 290.269091 91.084082 
L 293.54843 91.733916 
L 296.827769 90.395853 
L 300.107107 91.236395 
L 303.386446 90.395853 
L 306.665785 89.152195 
L 309.945124 90.199584 
L 313.224463 89.208039 
L 316.503802 88.159158 
L 319.78314 88.36608 
L 323.062479 87.240589 
L 326.341818 88.509968 
L 329.621157 89.062288 
L 332.900496 86.604839 
L 336.179835 86.52619 
L 339.459174 88.094062 
L 342.738512 88.303076 
L 346.017851 88.159158 
L 349.29719 86.387116 
L 352.576529 87.807156 
L 355.855868 87.59596 
L 359.135207 88.159158 
L 362.414545 87.312917 
L 365.693884 87.524121 
L 368.973223 88.094062 
L 372.252562 86.884001 
L 375.531901 87.309989 
L 378.81124 87.382591 
L 382.090579 85.806872 
L 385.369917 89.187574 
L 388.649256 87.669537 
L 391.928595 87.309989 
L 395.207934 88.947535 
L 398.487273 87.092159 
" clip-path="url(#p899e72f134)" style="fill: none; stroke: #0000ff; stroke-width: 1.5; stroke-linecap: square"/>
   </g>
   <g id="line2d_17">
    <path d="M 73.832727 163.638851 
L 77.112066 163.712771 
L 80.391405 154.999739 
L 83.670744 147.428989 
L 86.950083 145.536877 
L 90.229421 141.460467 
L 93.50876 141.472288 
L 96.788099 138.22011 
L 100.067438 135.717855 
L 103.346777 131.481526 
L 106.626116 130.07433 
L 109.905455 126.778098 
L 113.184793 126.948745 
L 116.464132 122.88101 
L 119.743471 123.562535 
L 123.02281 119.923584 
L 126.302149 119.838638 
L 129.581488 117.079748 
L 132.860826 117.454656 
L 136.140165 116.562278 
L 139.419504 115.080878 
L 142.698843 111.326716 
L 145.978182 113.506819 
L 149.257521 114.840014 
L 152.53686 112.889699 
L 155.816198 112.642944 
L 159.095537 110.314841 
L 162.374876 111.719904 
L 165.654215 109.02575 
L 168.933554 110.896811 
L 172.212893 111.470896 
L 175.492231 109.02575 
L 178.77157 105.384925 
L 182.050909 104.213883 
L 185.330248 105.452408 
L 188.609587 104.482904 
L 191.888926 104.586173 
L 195.168264 104.482904 
L 198.447603 100.925503 
L 201.726942 100.64636 
L 205.006281 102.696056 
L 208.28562 101.599089 
L 211.564959 100.489567 
L 214.844298 100.366415 
L 218.123636 98.384048 
L 221.402975 101.599089 
L 224.682314 98.384048 
L 227.961653 97.659401 
L 231.240992 97.371859 
L 234.520331 96.794261 
L 237.799669 97.810237 
L 241.079008 98.517039 
L 244.358347 99.649056 
L 247.637686 97.083481 
L 250.917025 95.041081 
L 254.196364 95.775319 
L 257.475702 93.09661 
L 260.755041 94.439945 
L 264.03438 92.049336 
L 267.313719 92.956195 
L 270.593058 91.745243 
L 273.872397 92.956195 
L 277.151736 92.352524 
L 280.431074 94.745872 
L 283.710413 93.855005 
L 286.989752 91.099267 
L 290.269091 88.468758 
L 293.54843 92.326827 
L 296.827769 93.237864 
L 300.107107 89.72342 
L 303.386446 91.270522 
L 306.665785 90.303739 
L 309.945124 89.543797 
L 313.224463 90.168817 
L 316.503802 90.168817 
L 319.78314 87.325936 
L 323.062479 88.73024 
L 326.341818 88.73024 
L 329.621157 88.023914 
L 332.900496 90.034713 
L 336.179835 86.486357 
L 339.459174 88.282271 
L 342.738512 85.509714 
L 346.017851 86.486357 
L 349.29719 87.005194 
L 352.576529 89.990958 
L 355.855868 86.037007 
L 359.135207 84.491244 
L 362.414545 87.707657 
L 365.693884 87.132421 
L 368.973223 85.912965 
L 372.252562 84.611256 
L 375.531901 87.453957 
L 378.81124 86.161821 
L 382.090579 84.523901 
L 385.369917 86.486357 
L 388.649256 88.094062 
L 391.928595 86.360734 
L 395.207934 84.975809 
L 398.487273 86.161821 
" clip-path="url(#p899e72f134)" style="fill: none; stroke: #90ee90; stroke-width: 1.5; stroke-linecap: square"/>
   </g>
   <g id="line2d_18">
    <path d="M 73.832727 152.546437 
L 77.112066 147.704721 
L 80.391405 146.393252 
L 83.670744 146.862266 
L 86.950083 142.635869 
L 90.229421 142.857842 
L 93.50876 140.810634 
L 96.788099 137.480658 
L 100.067438 136.917846 
L 103.346777 133.09759 
L 106.626116 128.871213 
L 109.905455 127.542616 
L 113.184793 123.987955 
L 116.464132 122.159163 
L 119.743471 120.195393 
L 123.02281 115.054514 
L 126.302149 113.419109 
L 129.581488 112.732056 
L 132.860826 112.961649 
L 136.140165 108.738674 
L 139.419504 109.931199 
L 142.698843 107.043155 
L 145.978182 107.043155 
L 149.257521 104.356723 
L 152.53686 101.687866 
L 155.816198 99.79638 
L 159.095537 99.67806 
L 162.374876 97.940226 
L 165.654215 96.863672 
L 168.933554 95.086655 
L 172.212893 96.731536 
L 175.492231 94.962377 
L 178.77157 93.987258 
L 182.050909 94.956825 
L 185.330248 94.951195 
L 188.609587 93.151155 
L 191.888926 92.589888 
L 195.168264 91.331087 
L 198.447603 90.726403 
L 201.726942 87.985108 
L 205.006281 88.502869 
L 208.28562 87.513311 
L 211.564959 87.92145 
L 214.844298 86.453511 
L 218.123636 87.809571 
L 221.402975 87.043171 
L 224.682314 85.076426 
L 227.961653 84.503547 
L 231.240992 83.454451 
L 234.520331 82.643922 
L 237.799669 82.951056 
L 241.079008 82.844282 
L 244.358347 81.922416 
L 247.637686 80.884461 
L 250.917025 81.613349 
L 254.196364 79.108229 
L 257.475702 80.054496 
L 260.755041 80.054496 
L 264.03438 79.108229 
L 267.313719 78.153612 
L 270.593058 78.88785 
L 273.872397 77.190535 
L 277.151736 78.153612 
L 280.431074 79.424573 
L 283.710413 77.190535 
L 286.989752 77.190535 
L 290.269091 75.238546 
L 293.54843 77.190535 
L 296.827769 76.86761 
L 300.107107 74.249401 
L 303.386446 76.218885 
L 306.665785 75.566298 
L 309.945124 75.238546 
L 313.224463 74.249401 
L 316.503802 73.585021 
L 319.78314 74.580102 
L 323.062479 75.238546 
L 326.341818 73.585021 
L 329.621157 74.580102 
L 332.900496 72.916639 
L 336.179835 73.585021 
L 339.459174 71.906481 
L 342.738512 71.567721 
L 346.017851 72.916639 
L 349.29719 71.567721 
L 352.576529 71.567721 
L 355.855868 70.545254 
L 359.135207 70.887113 
L 362.414545 72.244218 
L 365.693884 70.887113 
L 368.973223 70.545254 
L 372.252562 68.820233 
L 375.531901 69.513407 
L 378.81124 68.820233 
L 382.090579 69.513407 
L 385.369917 70.887113 
L 388.649256 68.122794 
L 391.928595 68.820233 
L 395.207934 68.122794 
L 398.487273 68.820233 
" clip-path="url(#p899e72f134)" style="fill: none; stroke: #008000; stroke-width: 1.5; stroke-linecap: square"/>
   </g>
   <g id="line2d_19">
    <path d="M 73.832727 295.488 
L 77.112066 295.488 
L 80.391405 295.488 
L 83.670744 293.69846 
L 86.950083 293.69846 
L 90.229421 290.15759 
L 93.50876 278.15183 
L 96.788099 266.715834 
L 100.067438 254.29314 
L 103.346777 236.842213 
L 106.626116 218.091748 
L 109.905455 195.057773 
L 113.184793 187.79979 
L 116.464132 176.418109 
L 119.743471 161.913934 
L 123.02281 155.383441 
L 126.302149 142.998022 
L 129.581488 129.849521 
L 132.860826 124.040919 
L 136.140165 118.801553 
L 139.419504 111.600766 
L 142.698843 106.748543 
L 145.978182 102.461165 
L 149.257521 99.189211 
L 152.53686 94.7242 
L 155.816198 91.614638 
L 159.095537 90.388878 
L 162.374876 89.173247 
L 165.654215 87.967622 
L 168.933554 86.177675 
L 172.212893 84.409557 
L 175.492231 82.514719 
L 178.77157 80.657626 
L 182.050909 80.092117 
L 185.330248 78.408999 
L 188.609587 78.280803 
L 191.888926 77.726629 
L 195.168264 77.726629 
L 198.447603 76.624788 
L 201.726942 76.077096 
L 205.006281 74.988104 
L 208.28562 72.835349 
L 211.564959 72.835349 
L 214.844298 72.302345 
L 218.123636 72.302345 
L 221.402975 72.302345 
L 224.682314 71.672065 
L 227.961653 71.573496 
L 231.240992 71.048987 
L 234.520331 71.475677 
L 237.799669 71.475677 
L 241.079008 71.475677 
L 244.358347 70.953345 
L 247.637686 70.953345 
L 250.917025 71.3786 
L 254.196364 71.3786 
L 257.475702 70.858425 
L 260.755041 70.858425 
L 264.03438 70.858425 
L 267.313719 70.858425 
L 270.593058 69.309635 
L 273.872397 69.309635 
L 277.151736 69.309635 
L 280.431074 69.309635 
L 283.710413 69.309635 
L 286.989752 69.309635 
L 290.269091 69.309635 
L 293.54843 69.309635 
L 296.827769 69.309635 
L 300.107107 69.309635 
L 303.386446 69.309635 
L 306.665785 69.733985 
L 309.945124 69.22176 
L 313.224463 69.22176 
L 316.503802 69.22176 
L 319.78314 68.711451 
L 323.062479 68.711451 
L 326.341818 68.711451 
L 329.621157 68.711451 
L 332.900496 68.711451 
L 336.179835 68.711451 
L 339.459174 68.711451 
L 342.738512 68.203046 
L 346.017851 68.203046 
L 349.29719 68.203046 
L 352.576529 68.626295 
L 355.855868 68.119939 
L 359.135207 68.119939 
L 362.414545 68.119939 
L 365.693884 68.119939 
L 368.973223 68.119939 
L 372.252562 67.615461 
L 375.531901 67.615461 
L 378.81124 67.615461 
L 382.090579 68.037447 
L 385.369917 68.037447 
L 388.649256 68.037447 
L 391.928595 68.037447 
L 395.207934 68.037447 
L 398.487273 68.037447 
" clip-path="url(#p899e72f134)" style="fill: none; stroke: #ff00ff; stroke-width: 1.5; stroke-linecap: square"/>
   </g>
   <g id="line2d_20">
    <path d="M 73.832727 295.488 
L 77.112066 295.488 
L 80.391405 295.488 
L 83.670744 284.029076 
L 86.950083 273.084334 
L 90.229421 262.619926 
L 93.50876 249.821991 
L 96.788099 228.723586 
L 100.067438 201.617598 
L 103.346777 179.675234 
L 106.626116 141.417312 
L 109.905455 125.378748 
L 113.184793 111.430762 
L 116.464132 105.532591 
L 119.743471 101.095534 
L 123.02281 95.574401 
L 126.302149 89.092021 
L 129.581488 87.372535 
L 132.860826 82.884424 
L 136.140165 79.608102 
L 139.419504 73.79202 
L 142.698843 69.709877 
L 145.978182 67.713501 
L 149.257521 66.726202 
L 152.53686 65.746057 
L 155.816198 63.32649 
L 159.095537 61.895489 
L 162.374876 60.479739 
L 165.654215 59.544258 
L 168.933554 58.153388 
L 172.212893 58.153388 
L 175.492231 57.693024 
L 178.77157 56.777134 
L 182.050909 56.777134 
L 185.330248 56.777134 
L 188.609587 56.777134 
L 191.888926 56.32159 
L 195.168264 55.867637 
L 198.447603 55.867637 
L 201.726942 55.415265 
L 205.006281 55.832783 
L 208.28562 55.832783 
L 211.564959 55.382043 
L 214.844298 55.382043 
L 218.123636 55.382043 
L 221.402975 54.485241 
L 224.682314 54.485241 
L 227.961653 54.485241 
L 231.240992 54.485241 
L 234.520331 54.485241 
L 237.799669 54.485241 
L 241.079008 54.90148 
L 244.358347 54.90148 
L 247.637686 54.90148 
L 250.917025 54.455454 
L 254.196364 54.455454 
L 257.475702 54.010963 
L 260.755041 54.010963 
L 264.03438 54.010963 
L 267.313719 54.010963 
L 270.593058 54.010963 
L 273.872397 54.010963 
L 277.151736 54.010963 
L 280.431074 53.568 
L 283.710413 53.568 
L 286.989752 53.568 
L 290.269091 53.568 
L 293.54843 53.568 
L 296.827769 53.568 
L 300.107107 53.568 
L 303.386446 53.568 
L 306.665785 53.568 
L 309.945124 53.568 
L 313.224463 53.568 
L 316.503802 53.982957 
L 319.78314 53.982957 
L 323.062479 53.982957 
L 326.341818 53.982957 
L 329.621157 53.982957 
L 332.900496 53.982957 
L 336.179835 53.982957 
L 339.459174 53.982957 
L 342.738512 53.982957 
L 346.017851 53.982957 
L 349.29719 53.982957 
L 352.576529 53.982957 
L 355.855868 53.982957 
L 359.135207 53.982957 
L 362.414545 53.982957 
L 365.693884 53.982957 
L 368.973223 53.982957 
L 372.252562 53.982957 
L 375.531901 53.982957 
L 378.81124 53.982957 
L 382.090579 53.982957 
L 385.369917 53.982957 
L 388.649256 53.982957 
L 391.928595 53.982957 
L 395.207934 53.982957 
L 398.487273 53.982957 
" clip-path="url(#p899e72f134)" style="fill: none; stroke: #9400d3; stroke-width: 1.5; stroke-linecap: square"/>
   </g>
   <g id="patch_3">
    <path d="M 57.6 307.584 
L 57.6 41.472 
" style="fill: none; stroke: #000000; stroke-width: 0.8; stroke-linejoin: miter; stroke-linecap: square"/>
   </g>
   <g id="patch_4">
    <path d="M 414.72 307.584 
L 414.72 41.472 
" style="fill: none; stroke: #000000; stroke-width: 0.8; stroke-linejoin: miter; stroke-linecap: square"/>
   </g>
   <g id="patch_5">
    <path d="M 57.6 307.584 
L 414.72 307.584 
" style="fill: none; stroke: #000000; stroke-width: 0.8; stroke-linejoin: miter; stroke-linecap: square"/>
   </g>
   <g id="patch_6">
    <path d="M 57.6 41.472 
L 414.72 41.472 
" style="fill: none; stroke: #000000; stroke-width: 0.8; stroke-linejoin: miter; stroke-linecap: square"/>
   </g>
   <g id="legend_1">
    <g id="patch_7">
     <path d="M 230.262187 302.584 
L 407.72 302.584 
Q 409.72 302.584 409.72 300.584 
L 409.72 184.159 
Q 409.72 182.159 407.72 182.159 
L 230.262187 182.159 
Q 228.262187 182.159 228.262187 184.159 
L 228.262187 300.584 
Q 228.262187 302.584 230.262187 302.584 
z
" style="fill: #ffffff; opacity: 0.8; stroke: #cccccc; stroke-linejoin: miter"/>
    </g>
    <g id="line2d_21">
     <path d="M 232.262187 190.257437 
L 242.262187 190.257437 
L 252.262187 190.257437 
" style="fill: none; stroke: #ff6347; stroke-width: 1.5; stroke-linecap: square"/>
    </g>
    <g id="text_15">
     <!-- MLP SNN1 Bert large -->
     <g transform="translate(260.262187 193.757437) scale(0.1 -0.1)">
      <defs>
       <path id="DejaVuSans-4c" d="M 628 4666 
L 1259 4666 
L 1259 531 
L 3531 531 
L 3531 0 
L 628 0 
L 628 4666 
z
" transform="scale(0.015625)"/>
       <path id="DejaVuSans-50" d="M 1259 4147 
L 1259 2394 
L 2053 2394 
Q 2494 2394 2734 2622 
Q 2975 2850 2975 3272 
Q 2975 3691 2734 3919 
Q 2494 4147 2053 4147 
L 1259 4147 
z
M 628 4666 
L 2053 4666 
Q 2838 4666 3239 4311 
Q 3641 3956 3641 3272 
Q 3641 2581 3239 2228 
Q 2838 1875 2053 1875 
L 1259 1875 
L 1259 0 
L 628 0 
L 628 4666 
z
" transform="scale(0.015625)"/>
       <path id="DejaVuSans-20" transform="scale(0.015625)"/>
       <path id="DejaVuSans-53" d="M 3425 4513 
L 3425 3897 
Q 3066 4069 2747 4153 
Q 2428 4238 2131 4238 
Q 1616 4238 1336 4038 
Q 1056 3838 1056 3469 
Q 1056 3159 1242 3001 
Q 1428 2844 1947 2747 
L 2328 2669 
Q 3034 2534 3370 2195 
Q 3706 1856 3706 1288 
Q 3706 609 3251 259 
Q 2797 -91 1919 -91 
Q 1588 -91 1214 -16 
Q 841 59 441 206 
L 441 856 
Q 825 641 1194 531 
Q 1563 422 1919 422 
Q 2459 422 2753 634 
Q 3047 847 3047 1241 
Q 3047 1584 2836 1778 
Q 2625 1972 2144 2069 
L 1759 2144 
Q 1053 2284 737 2584 
Q 422 2884 422 3419 
Q 422 4038 858 4394 
Q 1294 4750 2059 4750 
Q 2388 4750 2728 4690 
Q 3069 4631 3425 4513 
z
" transform="scale(0.015625)"/>
       <path id="DejaVuSans-4e" d="M 628 4666 
L 1478 4666 
L 3547 763 
L 3547 4666 
L 4159 4666 
L 4159 0 
L 3309 0 
L 1241 3903 
L 1241 0 
L 628 0 
L 628 4666 
z
" transform="scale(0.015625)"/>
       <path id="DejaVuSans-42" d="M 1259 2228 
L 1259 519 
L 2272 519 
Q 2781 519 3026 730 
Q 3272 941 3272 1375 
Q 3272 1813 3026 2020 
Q 2781 2228 2272 2228 
L 1259 2228 
z
M 1259 4147 
L 1259 2741 
L 2194 2741 
Q 2656 2741 2882 2914 
Q 3109 3088 3109 3444 
Q 3109 3797 2882 3972 
Q 2656 4147 2194 4147 
L 1259 4147 
z
M 628 4666 
L 2241 4666 
Q 2963 4666 3353 4366 
Q 3744 4066 3744 3513 
Q 3744 3084 3544 2831 
Q 3344 2578 2956 2516 
Q 3422 2416 3680 2098 
Q 3938 1781 3938 1306 
Q 3938 681 3513 340 
Q 3088 0 2303 0 
L 628 0 
L 628 4666 
z
" transform="scale(0.015625)"/>
       <path id="DejaVuSans-74" d="M 1172 4494 
L 1172 3500 
L 2356 3500 
L 2356 3053 
L 1172 3053 
L 1172 1153 
Q 1172 725 1289 603 
Q 1406 481 1766 481 
L 2356 481 
L 2356 0 
L 1766 0 
Q 1100 0 847 248 
Q 594 497 594 1153 
L 594 3053 
L 172 3053 
L 172 3500 
L 594 3500 
L 594 4494 
L 1172 4494 
z
" transform="scale(0.015625)"/>
       <path id="DejaVuSans-6c" d="M 603 4863 
L 1178 4863 
L 1178 0 
L 603 0 
L 603 4863 
z
" transform="scale(0.015625)"/>
       <path id="DejaVuSans-67" d="M 2906 1791 
Q 2906 2416 2648 2759 
Q 2391 3103 1925 3103 
Q 1463 3103 1205 2759 
Q 947 2416 947 1791 
Q 947 1169 1205 825 
Q 1463 481 1925 481 
Q 2391 481 2648 825 
Q 2906 1169 2906 1791 
z
M 3481 434 
Q 3481 -459 3084 -895 
Q 2688 -1331 1869 -1331 
Q 1566 -1331 1297 -1286 
Q 1028 -1241 775 -1147 
L 775 -588 
Q 1028 -725 1275 -790 
Q 1522 -856 1778 -856 
Q 2344 -856 2625 -561 
Q 2906 -266 2906 331 
L 2906 616 
Q 2728 306 2450 153 
Q 2172 0 1784 0 
Q 1141 0 747 490 
Q 353 981 353 1791 
Q 353 2603 747 3093 
Q 1141 3584 1784 3584 
Q 2172 3584 2450 3431 
Q 2728 3278 2906 2969 
L 2906 3500 
L 3481 3500 
L 3481 434 
z
" transform="scale(0.015625)"/>
      </defs>
      <use xlink:href="#DejaVuSans-4d"/>
      <use xlink:href="#DejaVuSans-4c" x="86.279297"/>
      <use xlink:href="#DejaVuSans-50" x="141.992188"/>
      <use xlink:href="#DejaVuSans-20" x="202.294922"/>
      <use xlink:href="#DejaVuSans-53" x="234.082031"/>
      <use xlink:href="#DejaVuSans-4e" x="297.558594"/>
      <use xlink:href="#DejaVuSans-4e" x="372.363281"/>
      <use xlink:href="#DejaVuSans-31" x="447.167969"/>
      <use xlink:href="#DejaVuSans-20" x="510.791016"/>
      <use xlink:href="#DejaVuSans-42" x="542.578125"/>
      <use xlink:href="#DejaVuSans-65" x="611.181641"/>
      <use xlink:href="#DejaVuSans-72" x="672.705078"/>
      <use xlink:href="#DejaVuSans-74" x="713.818359"/>
      <use xlink:href="#DejaVuSans-20" x="753.027344"/>
      <use xlink:href="#DejaVuSans-6c" x="784.814453"/>
      <use xlink:href="#DejaVuSans-61" x="812.597656"/>
      <use xlink:href="#DejaVuSans-72" x="873.876953"/>
      <use xlink:href="#DejaVuSans-67" x="913.240234"/>
      <use xlink:href="#DejaVuSans-65" x="976.716797"/>
     </g>
    </g>
    <g id="line2d_22">
     <path d="M 232.262187 204.935563 
L 242.262187 204.935563 
L 252.262187 204.935563 
" style="fill: none; stroke: #ff0000; stroke-width: 1.5; stroke-linecap: square"/>
    </g>
    <g id="text_16">
     <!-- MLP SNN1 Bert base -->
     <g transform="translate(260.262187 208.435563) scale(0.1 -0.1)">
      <defs>
       <path id="DejaVuSans-62" d="M 3116 1747 
Q 3116 2381 2855 2742 
Q 2594 3103 2138 3103 
Q 1681 3103 1420 2742 
Q 1159 2381 1159 1747 
Q 1159 1113 1420 752 
Q 1681 391 2138 391 
Q 2594 391 2855 752 
Q 3116 1113 3116 1747 
z
M 1159 2969 
Q 1341 3281 1617 3432 
Q 1894 3584 2278 3584 
Q 2916 3584 3314 3078 
Q 3713 2572 3713 1747 
Q 3713 922 3314 415 
Q 2916 -91 2278 -91 
Q 1894 -91 1617 61 
Q 1341 213 1159 525 
L 1159 0 
L 581 0 
L 581 4863 
L 1159 4863 
L 1159 2969 
z
" transform="scale(0.015625)"/>
      </defs>
      <use xlink:href="#DejaVuSans-4d"/>
      <use xlink:href="#DejaVuSans-4c" x="86.279297"/>
      <use xlink:href="#DejaVuSans-50" x="141.992188"/>
      <use xlink:href="#DejaVuSans-20" x="202.294922"/>
      <use xlink:href="#DejaVuSans-53" x="234.082031"/>
      <use xlink:href="#DejaVuSans-4e" x="297.558594"/>
      <use xlink:href="#DejaVuSans-4e" x="372.363281"/>
      <use xlink:href="#DejaVuSans-31" x="447.167969"/>
      <use xlink:href="#DejaVuSans-20" x="510.791016"/>
      <use xlink:href="#DejaVuSans-42" x="542.578125"/>
      <use xlink:href="#DejaVuSans-65" x="611.181641"/>
      <use xlink:href="#DejaVuSans-72" x="672.705078"/>
      <use xlink:href="#DejaVuSans-74" x="713.818359"/>
      <use xlink:href="#DejaVuSans-20" x="753.027344"/>
      <use xlink:href="#DejaVuSans-62" x="784.814453"/>
      <use xlink:href="#DejaVuSans-61" x="848.291016"/>
      <use xlink:href="#DejaVuSans-73" x="909.570312"/>
      <use xlink:href="#DejaVuSans-65" x="961.669922"/>
     </g>
    </g>
    <g id="line2d_23">
     <path d="M 232.262187 219.613687 
L 242.262187 219.613687 
L 252.262187 219.613687 
" style="fill: none; stroke: #add8e6; stroke-width: 1.5; stroke-linecap: square"/>
    </g>
    <g id="text_17">
     <!-- MLP SNN2 Bert large -->
     <g transform="translate(260.262187 223.113687) scale(0.1 -0.1)">
      <use xlink:href="#DejaVuSans-4d"/>
      <use xlink:href="#DejaVuSans-4c" x="86.279297"/>
      <use xlink:href="#DejaVuSans-50" x="141.992188"/>
      <use xlink:href="#DejaVuSans-20" x="202.294922"/>
      <use xlink:href="#DejaVuSans-53" x="234.082031"/>
      <use xlink:href="#DejaVuSans-4e" x="297.558594"/>
      <use xlink:href="#DejaVuSans-4e" x="372.363281"/>
      <use xlink:href="#DejaVuSans-32" x="447.167969"/>
      <use xlink:href="#DejaVuSans-20" x="510.791016"/>
      <use xlink:href="#DejaVuSans-42" x="542.578125"/>
      <use xlink:href="#DejaVuSans-65" x="611.181641"/>
      <use xlink:href="#DejaVuSans-72" x="672.705078"/>
      <use xlink:href="#DejaVuSans-74" x="713.818359"/>
      <use xlink:href="#DejaVuSans-20" x="753.027344"/>
      <use xlink:href="#DejaVuSans-6c" x="784.814453"/>
      <use xlink:href="#DejaVuSans-61" x="812.597656"/>
      <use xlink:href="#DejaVuSans-72" x="873.876953"/>
      <use xlink:href="#DejaVuSans-67" x="913.240234"/>
      <use xlink:href="#DejaVuSans-65" x="976.716797"/>
     </g>
    </g>
    <g id="line2d_24">
     <path d="M 232.262187 234.291812 
L 242.262187 234.291812 
L 252.262187 234.291812 
" style="fill: none; stroke: #0000ff; stroke-width: 1.5; stroke-linecap: square"/>
    </g>
    <g id="text_18">
     <!-- MLP SNN2 Bert base -->
     <g transform="translate(260.262187 237.791812) scale(0.1 -0.1)">
      <use xlink:href="#DejaVuSans-4d"/>
      <use xlink:href="#DejaVuSans-4c" x="86.279297"/>
      <use xlink:href="#DejaVuSans-50" x="141.992188"/>
      <use xlink:href="#DejaVuSans-20" x="202.294922"/>
      <use xlink:href="#DejaVuSans-53" x="234.082031"/>
      <use xlink:href="#DejaVuSans-4e" x="297.558594"/>
      <use xlink:href="#DejaVuSans-4e" x="372.363281"/>
      <use xlink:href="#DejaVuSans-32" x="447.167969"/>
      <use xlink:href="#DejaVuSans-20" x="510.791016"/>
      <use xlink:href="#DejaVuSans-42" x="542.578125"/>
      <use xlink:href="#DejaVuSans-65" x="611.181641"/>
      <use xlink:href="#DejaVuSans-72" x="672.705078"/>
      <use xlink:href="#DejaVuSans-74" x="713.818359"/>
      <use xlink:href="#DejaVuSans-20" x="753.027344"/>
      <use xlink:href="#DejaVuSans-62" x="784.814453"/>
      <use xlink:href="#DejaVuSans-61" x="848.291016"/>
      <use xlink:href="#DejaVuSans-73" x="909.570312"/>
      <use xlink:href="#DejaVuSans-65" x="961.669922"/>
     </g>
    </g>
    <g id="line2d_25">
     <path d="M 232.262187 248.969937 
L 242.262187 248.969937 
L 252.262187 248.969937 
" style="fill: none; stroke: #90ee90; stroke-width: 1.5; stroke-linecap: square"/>
    </g>
    <g id="text_19">
     <!-- AutoEncoder Bert large -->
     <g transform="translate(260.262187 252.469937) scale(0.1 -0.1)">
      <defs>
       <path id="DejaVuSans-41" d="M 2188 4044 
L 1331 1722 
L 3047 1722 
L 2188 4044 
z
M 1831 4666 
L 2547 4666 
L 4325 0 
L 3669 0 
L 3244 1197 
L 1141 1197 
L 716 0 
L 50 0 
L 1831 4666 
z
" transform="scale(0.015625)"/>
       <path id="DejaVuSans-6e" d="M 3513 2113 
L 3513 0 
L 2938 0 
L 2938 2094 
Q 2938 2591 2744 2837 
Q 2550 3084 2163 3084 
Q 1697 3084 1428 2787 
Q 1159 2491 1159 1978 
L 1159 0 
L 581 0 
L 581 3500 
L 1159 3500 
L 1159 2956 
Q 1366 3272 1645 3428 
Q 1925 3584 2291 3584 
Q 2894 3584 3203 3211 
Q 3513 2838 3513 2113 
z
" transform="scale(0.015625)"/>
       <path id="DejaVuSans-64" d="M 2906 2969 
L 2906 4863 
L 3481 4863 
L 3481 0 
L 2906 0 
L 2906 525 
Q 2725 213 2448 61 
Q 2172 -91 1784 -91 
Q 1150 -91 751 415 
Q 353 922 353 1747 
Q 353 2572 751 3078 
Q 1150 3584 1784 3584 
Q 2172 3584 2448 3432 
Q 2725 3281 2906 2969 
z
M 947 1747 
Q 947 1113 1208 752 
Q 1469 391 1925 391 
Q 2381 391 2643 752 
Q 2906 1113 2906 1747 
Q 2906 2381 2643 2742 
Q 2381 3103 1925 3103 
Q 1469 3103 1208 2742 
Q 947 2381 947 1747 
z
" transform="scale(0.015625)"/>
      </defs>
      <use xlink:href="#DejaVuSans-41"/>
      <use xlink:href="#DejaVuSans-75" x="68.408203"/>
      <use xlink:href="#DejaVuSans-74" x="131.787109"/>
      <use xlink:href="#DejaVuSans-6f" x="170.996094"/>
      <use xlink:href="#DejaVuSans-45" x="232.177734"/>
      <use xlink:href="#DejaVuSans-6e" x="295.361328"/>
      <use xlink:href="#DejaVuSans-63" x="358.740234"/>
      <use xlink:href="#DejaVuSans-6f" x="413.720703"/>
      <use xlink:href="#DejaVuSans-64" x="474.902344"/>
      <use xlink:href="#DejaVuSans-65" x="538.378906"/>
      <use xlink:href="#DejaVuSans-72" x="599.902344"/>
      <use xlink:href="#DejaVuSans-20" x="641.015625"/>
      <use xlink:href="#DejaVuSans-42" x="672.802734"/>
      <use xlink:href="#DejaVuSans-65" x="741.40625"/>
      <use xlink:href="#DejaVuSans-72" x="802.929688"/>
      <use xlink:href="#DejaVuSans-74" x="844.042969"/>
      <use xlink:href="#DejaVuSans-20" x="883.251953"/>
      <use xlink:href="#DejaVuSans-6c" x="915.039062"/>
      <use xlink:href="#DejaVuSans-61" x="942.822266"/>
      <use xlink:href="#DejaVuSans-72" x="1004.101562"/>
      <use xlink:href="#DejaVuSans-67" x="1043.464844"/>
      <use xlink:href="#DejaVuSans-65" x="1106.941406"/>
     </g>
    </g>
    <g id="line2d_26">
     <path d="M 232.262187 263.648062 
L 242.262187 263.648062 
L 252.262187 263.648062 
" style="fill: none; stroke: #008000; stroke-width: 1.5; stroke-linecap: square"/>
    </g>
    <g id="text_20">
     <!-- AutoEncoder Bert base -->
     <g transform="translate(260.262187 267.148062) scale(0.1 -0.1)">
      <use xlink:href="#DejaVuSans-41"/>
      <use xlink:href="#DejaVuSans-75" x="68.408203"/>
      <use xlink:href="#DejaVuSans-74" x="131.787109"/>
      <use xlink:href="#DejaVuSans-6f" x="170.996094"/>
      <use xlink:href="#DejaVuSans-45" x="232.177734"/>
      <use xlink:href="#DejaVuSans-6e" x="295.361328"/>
      <use xlink:href="#DejaVuSans-63" x="358.740234"/>
      <use xlink:href="#DejaVuSans-6f" x="413.720703"/>
      <use xlink:href="#DejaVuSans-64" x="474.902344"/>
      <use xlink:href="#DejaVuSans-65" x="538.378906"/>
      <use xlink:href="#DejaVuSans-72" x="599.902344"/>
      <use xlink:href="#DejaVuSans-20" x="641.015625"/>
      <use xlink:href="#DejaVuSans-42" x="672.802734"/>
      <use xlink:href="#DejaVuSans-65" x="741.40625"/>
      <use xlink:href="#DejaVuSans-72" x="802.929688"/>
      <use xlink:href="#DejaVuSans-74" x="844.042969"/>
      <use xlink:href="#DejaVuSans-20" x="883.251953"/>
      <use xlink:href="#DejaVuSans-62" x="915.039062"/>
      <use xlink:href="#DejaVuSans-61" x="978.515625"/>
      <use xlink:href="#DejaVuSans-73" x="1039.794922"/>
      <use xlink:href="#DejaVuSans-65" x="1091.894531"/>
     </g>
    </g>
    <g id="line2d_27">
     <path d="M 232.262187 278.326187 
L 242.262187 278.326187 
L 252.262187 278.326187 
" style="fill: none; stroke: #ff00ff; stroke-width: 1.5; stroke-linecap: square"/>
    </g>
    <g id="text_21">
     <!-- AutoEncoder+MLP Bert large -->
     <g transform="translate(260.262187 281.826187) scale(0.1 -0.1)">
      <defs>
       <path id="DejaVuSans-2b" d="M 2944 4013 
L 2944 2272 
L 4684 2272 
L 4684 1741 
L 2944 1741 
L 2944 0 
L 2419 0 
L 2419 1741 
L 678 1741 
L 678 2272 
L 2419 2272 
L 2419 4013 
L 2944 4013 
z
" transform="scale(0.015625)"/>
      </defs>
      <use xlink:href="#DejaVuSans-41"/>
      <use xlink:href="#DejaVuSans-75" x="68.408203"/>
      <use xlink:href="#DejaVuSans-74" x="131.787109"/>
      <use xlink:href="#DejaVuSans-6f" x="170.996094"/>
      <use xlink:href="#DejaVuSans-45" x="232.177734"/>
      <use xlink:href="#DejaVuSans-6e" x="295.361328"/>
      <use xlink:href="#DejaVuSans-63" x="358.740234"/>
      <use xlink:href="#DejaVuSans-6f" x="413.720703"/>
      <use xlink:href="#DejaVuSans-64" x="474.902344"/>
      <use xlink:href="#DejaVuSans-65" x="538.378906"/>
      <use xlink:href="#DejaVuSans-72" x="599.902344"/>
      <use xlink:href="#DejaVuSans-2b" x="641.015625"/>
      <use xlink:href="#DejaVuSans-4d" x="724.804688"/>
      <use xlink:href="#DejaVuSans-4c" x="811.083984"/>
      <use xlink:href="#DejaVuSans-50" x="866.796875"/>
      <use xlink:href="#DejaVuSans-20" x="927.099609"/>
      <use xlink:href="#DejaVuSans-42" x="958.886719"/>
      <use xlink:href="#DejaVuSans-65" x="1027.490234"/>
      <use xlink:href="#DejaVuSans-72" x="1089.013672"/>
      <use xlink:href="#DejaVuSans-74" x="1130.126953"/>
      <use xlink:href="#DejaVuSans-20" x="1169.335938"/>
      <use xlink:href="#DejaVuSans-6c" x="1201.123047"/>
      <use xlink:href="#DejaVuSans-61" x="1228.90625"/>
      <use xlink:href="#DejaVuSans-72" x="1290.185547"/>
      <use xlink:href="#DejaVuSans-67" x="1329.548828"/>
      <use xlink:href="#DejaVuSans-65" x="1393.025391"/>
     </g>
    </g>
    <g id="line2d_28">
     <path d="M 232.262187 293.004312 
L 242.262187 293.004312 
L 252.262187 293.004312 
" style="fill: none; stroke: #9400d3; stroke-width: 1.5; stroke-linecap: square"/>
    </g>
    <g id="text_22">
     <!-- AutoEncoder+MLP Bert base -->
     <g transform="translate(260.262187 296.504312) scale(0.1 -0.1)">
      <use xlink:href="#DejaVuSans-41"/>
      <use xlink:href="#DejaVuSans-75" x="68.408203"/>
      <use xlink:href="#DejaVuSans-74" x="131.787109"/>
      <use xlink:href="#DejaVuSans-6f" x="170.996094"/>
      <use xlink:href="#DejaVuSans-45" x="232.177734"/>
      <use xlink:href="#DejaVuSans-6e" x="295.361328"/>
      <use xlink:href="#DejaVuSans-63" x="358.740234"/>
      <use xlink:href="#DejaVuSans-6f" x="413.720703"/>
      <use xlink:href="#DejaVuSans-64" x="474.902344"/>
      <use xlink:href="#DejaVuSans-65" x="538.378906"/>
      <use xlink:href="#DejaVuSans-72" x="599.902344"/>
      <use xlink:href="#DejaVuSans-2b" x="641.015625"/>
      <use xlink:href="#DejaVuSans-4d" x="724.804688"/>
      <use xlink:href="#DejaVuSans-4c" x="811.083984"/>
      <use xlink:href="#DejaVuSans-50" x="866.796875"/>
      <use xlink:href="#DejaVuSans-20" x="927.099609"/>
      <use xlink:href="#DejaVuSans-42" x="958.886719"/>
      <use xlink:href="#DejaVuSans-65" x="1027.490234"/>
      <use xlink:href="#DejaVuSans-72" x="1089.013672"/>
      <use xlink:href="#DejaVuSans-74" x="1130.126953"/>
      <use xlink:href="#DejaVuSans-20" x="1169.335938"/>
      <use xlink:href="#DejaVuSans-62" x="1201.123047"/>
      <use xlink:href="#DejaVuSans-61" x="1264.599609"/>
      <use xlink:href="#DejaVuSans-73" x="1325.878906"/>
      <use xlink:href="#DejaVuSans-65" x="1377.978516"/>
     </g>
    </g>
   </g>
  </g>
 </g>
 <defs>
  <clipPath id="p899e72f134">
   <rect x="57.6" y="41.472" width="357.12" height="266.112"/>
  </clipPath>
 </defs>
</svg>
