<svg xmlns="http://www.w3.org/2000/svg" xmlns:xlink="http://www.w3.org/1999/xlink" contentStyleType="text/css" height="1044px" preserveAspectRatio="none" style="width:3389px;height:1044px;background:#FFFFFF;" version="1.1" viewBox="0 0 3389 1044" width="3389px" zoomAndPan="magnify"><defs/><g><!--cluster decoding--><g id="cluster_decoding"><path d="M1464.5,6 L1530.5,6 A3.75,3.75 0 0 1 1533,8.5 L1540,28.4883 L2301.5,28.4883 A2.5,2.5 0 0 1 2304,30.9883 L2304,458.33 A2.5,2.5 0 0 1 2301.5,460.83 L1464.5,460.83 A2.5,2.5 0 0 1 1462,458.33 L1462,8.5 A2.5,2.5 0 0 1 1464.5,6 " fill="none" style="stroke:#000000;stroke-width:1.5;"/><line style="stroke:#000000;stroke-width:1.5;" x1="1462" x2="1540" y1="28.4883" y2="28.4883"/><text fill="#000000" font-family="sans-serif" font-size="14" font-weight="bold" lengthAdjust="spacing" textLength="65" x="1466" y="21.5352">decoding</text></g><!--cluster motion--><g id="cluster_motion"><path d="M8.5,658.23 L61.5,658.23 A3.75,3.75 0 0 1 64,660.73 L71,680.7183 L1416.5,680.7183 A2.5,2.5 0 0 1 1419,683.2183 L1419,886.64 A2.5,2.5 0 0 1 1416.5,889.14 L8.5,889.14 A2.5,2.5 0 0 1 6,886.64 L6,660.73 A2.5,2.5 0 0 1 8.5,658.23 " fill="none" style="stroke:#000000;stroke-width:1.5;"/><line style="stroke:#000000;stroke-width:1.5;" x1="6" x2="71" y1="680.7183" y2="680.7183"/><text fill="#000000" font-family="sans-serif" font-size="14" font-weight="bold" lengthAdjust="spacing" textLength="52" x="10" y="673.7652">motion</text></g><!--cluster image--><g id="cluster_image"><path d="M1445.5,509.83 L1490.5,509.83 A3.75,3.75 0 0 1 1493,512.33 L1500,532.3183 L3379.5,532.3183 A2.5,2.5 0 0 1 3382,534.8183 L3382,1035.03 A2.5,2.5 0 0 1 3379.5,1037.53 L1445.5,1037.53 A2.5,2.5 0 0 1 1443,1035.03 L1443,512.33 A2.5,2.5 0 0 1 1445.5,509.83 " fill="none" style="stroke:#000000;stroke-width:1.5;"/><line style="stroke:#000000;stroke-width:1.5;" x1="1443" x2="1500" y1="532.3183" y2="532.3183"/><text fill="#000000" font-family="sans-serif" font-size="14" font-weight="bold" lengthAdjust="spacing" textLength="44" x="1447" y="525.3652">image</text></g><!--class VideoDecoder--><g id="elem_VideoDecoder"><rect codeLine="3" fill="#F1F1F1" height="146.9297" id="VideoDecoder" rx="2.5" ry="2.5" style="stroke:#181818;stroke-width:0.5;" width="311" x="1968.5" y="41"/><ellipse cx="2071.75" cy="57" fill="#ADD1B2" rx="11" ry="11" style="stroke:#181818;stroke-width:1.0;"/><path d="M2074.2231,63.1431 Q2073.6421,63.4419 2073.0029,63.5913 Q2072.3638,63.7407 2071.6582,63.7407 Q2069.1514,63.7407 2067.8315,62.0889 Q2066.5117,60.437 2066.5117,57.3159 Q2066.5117,54.1865 2067.8315,52.5347 Q2069.1514,50.8828 2071.6582,50.8828 Q2072.3638,50.8828 2073.0112,51.0322 Q2073.6587,51.1816 2074.2231,51.4805 L2074.2231,54.2031 Q2073.5923,53.6221 2072.9988,53.3523 Q2072.4053,53.0825 2071.7744,53.0825 Q2070.4297,53.0825 2069.7449,54.1492 Q2069.0601,55.2158 2069.0601,57.3159 Q2069.0601,59.4077 2069.7449,60.4744 Q2070.4297,61.541 2071.7744,61.541 Q2072.4053,61.541 2072.9988,61.2712 Q2073.5923,61.0015 2074.2231,60.4204 Z " fill="#000000"/><text fill="#000000" font-family="sans-serif" font-size="14" lengthAdjust="spacing" textLength="96" x="2092.25" y="62.291">VideoDecoder</text><line style="stroke:#181818;stroke-width:0.5;" x1="1969.5" x2="2278.5" y1="73" y2="73"/><rect fill="none" height="6" style="stroke:#C82930;stroke-width:1.0;" width="6" x="1976.5" y="83.7441"/><text fill="#000000" font-family="sans-serif" font-size="14" lengthAdjust="spacing" textLength="121" x="1988.5" y="90.5352">decoder: Decoder</text><rect fill="none" height="6" style="stroke:#C82930;stroke-width:1.0;" width="6" x="1976.5" y="100.2324"/><text fill="#000000" font-family="sans-serif" font-size="14" lengthAdjust="spacing" textLength="126" x="1988.5" y="107.0234">frame_counter: int</text><rect fill="none" height="6" style="stroke:#C82930;stroke-width:1.0;" width="6" x="1976.5" y="116.7207"/><text fill="#000000" font-family="sans-serif" font-size="14" lengthAdjust="spacing" textLength="126" x="1988.5" y="123.5117">print_frames: bool</text><rect fill="none" height="6" style="stroke:#C82930;stroke-width:1.0;" width="6" x="1976.5" y="133.209"/><text fill="#000000" font-family="sans-serif" font-size="14" lengthAdjust="spacing" textLength="119" x="1988.5" y="140">receiver: Receiver</text><line style="stroke:#181818;stroke-width:0.5;" x1="1969.5" x2="2278.5" y1="146.9531" y2="146.9531"/><text fill="#000000" font-family="sans-serif" font-size="14" lengthAdjust="spacing" textLength="285" x="1988.5" y="164.4883">__init__(print_frames: bool = True) : None</text><ellipse cx="1979.5" cy="177.1855" fill="#84BE84" rx="3" ry="3" style="stroke:#038048;stroke-width:1.0;"/><text fill="#000000" font-family="sans-serif" font-size="14" lengthAdjust="spacing" textLength="183" x="1988.5" y="180.9766">process_frame(data) : bool</text></g><!--class Decoder--><g id="elem_Decoder"><rect codeLine="13" fill="#F1F1F1" height="146.9297" id="Decoder" rx="2.5" ry="2.5" style="stroke:#181818;stroke-width:0.5;" width="527" x="1477.5" y="281.42"/><ellipse cx="1708.25" cy="297.42" fill="#ADD1B2" rx="11" ry="11" style="stroke:#181818;stroke-width:1.0;"/><path d="M1710.7231,303.5631 Q1710.1421,303.8619 1709.5029,304.0113 Q1708.8638,304.1607 1708.1582,304.1607 Q1705.6514,304.1607 1704.3315,302.5089 Q1703.0117,300.857 1703.0117,297.7359 Q1703.0117,294.6065 1704.3315,292.9547 Q1705.6514,291.3028 1708.1582,291.3028 Q1708.8638,291.3028 1709.5112,291.4522 Q1710.1587,291.6016 1710.7231,291.9005 L1710.7231,294.6231 Q1710.0923,294.0421 1709.4988,293.7723 Q1708.9053,293.5025 1708.2744,293.5025 Q1706.9297,293.5025 1706.2449,294.5692 Q1705.5601,295.6358 1705.5601,297.7359 Q1705.5601,299.8277 1706.2449,300.8944 Q1706.9297,301.961 1708.2744,301.961 Q1708.9053,301.961 1709.4988,301.6912 Q1710.0923,301.4215 1710.7231,300.8404 Z " fill="#000000"/><text fill="#000000" font-family="sans-serif" font-size="14" lengthAdjust="spacing" textLength="57" x="1728.75" y="302.711">Decoder</text><line style="stroke:#181818;stroke-width:0.5;" x1="1478.5" x2="2003.5" y1="313.42" y2="313.42"/><rect fill="none" height="6" style="stroke:#C82930;stroke-width:1.0;" width="6" x="1485.5" y="324.1641"/><text fill="#000000" font-family="sans-serif" font-size="14" lengthAdjust="spacing" textLength="151" x="1497.5" y="330.9552">last_key_frame: Image</text><rect fill="none" height="6" style="stroke:#C82930;stroke-width:1.0;" width="6" x="1485.5" y="340.6524"/><text fill="#000000" font-family="sans-serif" font-size="14" lengthAdjust="spacing" textLength="97" x="1497.5" y="347.4434">block_size: int</text><line style="stroke:#181818;stroke-width:0.5;" x1="1478.5" x2="2003.5" y1="354.3966" y2="354.3966"/><text fill="#000000" font-family="sans-serif" font-size="14" lengthAdjust="spacing" textLength="242" x="1497.5" y="371.9317">__init__(block_size: int = 16) : None</text><ellipse cx="1488.5" cy="384.629" fill="#84BE84" rx="3" ry="3" style="stroke:#038048;stroke-width:1.0;"/><text fill="#000000" font-family="sans-serif" font-size="14" lengthAdjust="spacing" textLength="278" x="1497.5" y="388.42">decode_intra_frame(frame: Jpeg) : Image</text><ellipse cx="1488.5" cy="401.1173" fill="#84BE84" rx="3" ry="3" style="stroke:#038048;stroke-width:1.0;"/><text fill="#000000" font-family="sans-serif" font-size="14" lengthAdjust="spacing" textLength="480" x="1497.5" y="404.9083">decode_predicted_frame(err_frame: Jpeg, mvs: MotionVectors) : Image</text><ellipse cx="1488.5" cy="417.6055" fill="#84BE84" rx="3" ry="3" style="stroke:#038048;stroke-width:1.0;"/><text fill="#000000" font-family="sans-serif" font-size="14" lengthAdjust="spacing" textLength="501" x="1497.5" y="421.3966">decode_bidirectional_frame(err_frame: Jpeg, mvs: MotionVectors) : Image</text></g><!--class Receiver--><g id="elem_Receiver"><rect codeLine="23" fill="#F1F1F1" height="179.9063" id="Receiver" rx="2.5" ry="2.5" style="stroke:#181818;stroke-width:0.5;" width="249" x="2039.5" y="264.93"/><ellipse cx="2131.25" cy="280.93" fill="#ADD1B2" rx="11" ry="11" style="stroke:#181818;stroke-width:1.0;"/><path d="M2133.7231,287.0731 Q2133.1421,287.3719 2132.5029,287.5213 Q2131.8638,287.6707 2131.1582,287.6707 Q2128.6514,287.6707 2127.3315,286.0189 Q2126.0117,284.367 2126.0117,281.2459 Q2126.0117,278.1165 2127.3315,276.4647 Q2128.6514,274.8128 2131.1582,274.8128 Q2131.8638,274.8128 2132.5112,274.9622 Q2133.1587,275.1116 2133.7231,275.4105 L2133.7231,278.1331 Q2133.0923,277.5521 2132.4988,277.2823 Q2131.9053,277.0125 2131.2744,277.0125 Q2129.9297,277.0125 2129.2449,278.0792 Q2128.5601,279.1458 2128.5601,281.2459 Q2128.5601,283.3377 2129.2449,284.4044 Q2129.9297,285.471 2131.2744,285.471 Q2131.9053,285.471 2132.4988,285.2012 Q2133.0923,284.9315 2133.7231,284.3504 Z " fill="#000000"/><text fill="#000000" font-family="sans-serif" font-size="14" lengthAdjust="spacing" textLength="57" x="2151.75" y="286.221">Receiver</text><line style="stroke:#181818;stroke-width:0.5;" x1="2040.5" x2="2287.5" y1="296.93" y2="296.93"/><rect fill="none" height="6" style="stroke:#C82930;stroke-width:1.0;" width="6" x="2047.5" y="307.6741"/><text fill="#000000" font-family="sans-serif" font-size="14" lengthAdjust="spacing" textLength="171" x="2059.5" y="314.4652">compresser: Compresser</text><rect fill="none" height="6" style="stroke:#C82930;stroke-width:1.0;" width="6" x="2047.5" y="324.1624"/><text fill="#000000" font-family="sans-serif" font-size="14" lengthAdjust="spacing" textLength="115" x="2059.5" y="330.9534">callback: callable</text><rect fill="none" height="6" style="stroke:#C82930;stroke-width:1.0;" width="6" x="2047.5" y="340.6507"/><text fill="#000000" font-family="sans-serif" font-size="14" lengthAdjust="spacing" textLength="193" x="2059.5" y="347.4417">server_socket: socket.socket</text><rect fill="none" height="6" style="stroke:#C82930;stroke-width:1.0;" width="6" x="2047.5" y="357.139"/><text fill="#000000" font-family="sans-serif" font-size="14" lengthAdjust="spacing" textLength="134" x="2059.5" y="363.93">conn: socket.socket</text><rect fill="none" height="6" style="stroke:#C82930;stroke-width:1.0;" width="6" x="2047.5" y="373.6273"/><text fill="#000000" font-family="sans-serif" font-size="14" lengthAdjust="spacing" textLength="75" x="2059.5" y="380.4183">addr: tuple</text><line style="stroke:#181818;stroke-width:0.5;" x1="2040.5" x2="2287.5" y1="387.3714" y2="387.3714"/><text fill="#000000" font-family="sans-serif" font-size="14" lengthAdjust="spacing" textLength="223" x="2059.5" y="404.9066">__init__(callback: callable) : None</text><ellipse cx="2050.5" cy="417.6038" fill="#84BE84" rx="3" ry="3" style="stroke:#038048;stroke-width:1.0;"/><text fill="#000000" font-family="sans-serif" font-size="14" lengthAdjust="spacing" textLength="143" x="2059.5" y="421.3948">receive_data() : None</text><ellipse cx="2050.5" cy="434.0921" fill="#84BE84" rx="3" ry="3" style="stroke:#038048;stroke-width:1.0;"/><text fill="#000000" font-family="sans-serif" font-size="14" lengthAdjust="spacing" textLength="93" x="2059.5" y="437.8831">close() : None</text></g><!--class MotionVectors--><g id="elem_MotionVectors"><rect codeLine="40" fill="#F1F1F1" height="179.9063" id="MotionVectors" rx="2.5" ry="2.5" style="stroke:#181818;stroke-width:0.5;" width="530" x="22" y="693.23"/><ellipse cx="233.25" cy="709.23" fill="#ADD1B2" rx="11" ry="11" style="stroke:#181818;stroke-width:1.0;"/><path d="M235.7231,715.3731 Q235.1421,715.6719 234.5029,715.8213 Q233.8638,715.9707 233.1582,715.9707 Q230.6514,715.9707 229.3315,714.3189 Q228.0117,712.667 228.0117,709.5459 Q228.0117,706.4165 229.3315,704.7647 Q230.6514,703.1128 233.1582,703.1128 Q233.8638,703.1128 234.5112,703.2622 Q235.1587,703.4116 235.7231,703.7105 L235.7231,706.4331 Q235.0923,705.8521 234.4988,705.5823 Q233.9053,705.3125 233.2744,705.3125 Q231.9297,705.3125 231.2449,706.3792 Q230.5601,707.4458 230.5601,709.5459 Q230.5601,711.6377 231.2449,712.7044 Q231.9297,713.771 233.2744,713.771 Q233.9053,713.771 234.4988,713.5012 Q235.0923,713.2315 235.7231,712.6504 Z " fill="#000000"/><text fill="#000000" font-family="sans-serif" font-size="14" lengthAdjust="spacing" textLength="99" x="253.75" y="714.521">MotionVectors</text><line style="stroke:#181818;stroke-width:0.5;" x1="23" x2="551" y1="725.23" y2="725.23"/><rect fill="none" height="6" style="stroke:#C82930;stroke-width:1.0;" width="6" x="30" y="735.9741"/><text fill="#000000" font-family="sans-serif" font-size="14" lengthAdjust="spacing" textLength="188" x="42" y="742.7652">motion_vectors: np.ndarray</text><line style="stroke:#181818;stroke-width:0.5;" x1="23" x2="551" y1="749.7183" y2="749.7183"/><text fill="#000000" font-family="sans-serif" font-size="14" lengthAdjust="spacing" textLength="504" x="42" y="767.2534">__init__(height: int = None, width: int = None, vectors: any = None) : None</text><ellipse cx="33" cy="779.9507" fill="#84BE84" rx="3" ry="3" style="stroke:#038048;stroke-width:1.0;"/><text fill="#000000" font-family="sans-serif" font-size="14" lengthAdjust="spacing" textLength="461" x="42" y="783.7417">set_vector(block_x: int, block_y: int, x_value: int, y_value: int) : None</text><ellipse cx="33" cy="796.439" fill="#84BE84" rx="3" ry="3" style="stroke:#038048;stroke-width:1.0;"/><text fill="#000000" font-family="sans-serif" font-size="14" lengthAdjust="spacing" textLength="332" x="42" y="800.23">get_vector(block_x: int, block_y: int) : np.ndarray</text><ellipse cx="33" cy="812.9273" fill="#84BE84" rx="3" ry="3" style="stroke:#038048;stroke-width:1.0;"/><text fill="#000000" font-family="sans-serif" font-size="14" lengthAdjust="spacing" textLength="340" x="42" y="816.7183">operator +(other: MotionVectors) : MotionVectors</text><ellipse cx="33" cy="829.4155" fill="#84BE84" rx="3" ry="3" style="stroke:#038048;stroke-width:1.0;"/><text fill="#000000" font-family="sans-serif" font-size="14" lengthAdjust="spacing" textLength="337" x="42" y="833.2066">operator -(other: MotionVectors) : MotionVectors</text><ellipse cx="33" cy="845.9038" fill="#84BE84" rx="3" ry="3" style="stroke:#038048;stroke-width:1.0;"/><text fill="#000000" font-family="sans-serif" font-size="14" lengthAdjust="spacing" textLength="271" x="42" y="849.6948">operator *(scalar: float) : MotionVectors</text><ellipse cx="33" cy="862.3921" fill="#84BE84" rx="3" ry="3" style="stroke:#038048;stroke-width:1.0;"/><text fill="#000000" font-family="sans-serif" font-size="14" lengthAdjust="spacing" textLength="271" x="42" y="866.1831">operator /(scalar: float) : MotionVectors</text></g><!--class Helper--><g id="elem_Helper"><rect codeLine="52" fill="#F1F1F1" height="80.9766" id="Helper" rx="2.5" ry="2.5" style="stroke:#181818;stroke-width:0.5;" width="817" x="586.5" y="742.69"/><ellipse cx="968.25" cy="758.69" fill="#ADD1B2" rx="11" ry="11" style="stroke:#181818;stroke-width:1.0;"/><path d="M970.7231,764.8331 Q970.1421,765.1319 969.5029,765.2813 Q968.8638,765.4307 968.1582,765.4307 Q965.6514,765.4307 964.3315,763.7789 Q963.0117,762.127 963.0117,759.0059 Q963.0117,755.8765 964.3315,754.2247 Q965.6514,752.5728 968.1582,752.5728 Q968.8638,752.5728 969.5112,752.7222 Q970.1587,752.8716 970.7231,753.1705 L970.7231,755.8931 Q970.0923,755.3121 969.4988,755.0423 Q968.9053,754.7725 968.2744,754.7725 Q966.9297,754.7725 966.2449,755.8392 Q965.5601,756.9058 965.5601,759.0059 Q965.5601,761.0977 966.2449,762.1644 Q966.9297,763.231 968.2744,763.231 Q968.9053,763.231 969.4988,762.9612 Q970.0923,762.6915 970.7231,762.1104 Z " fill="#000000"/><text fill="#000000" font-family="sans-serif" font-size="14" lengthAdjust="spacing" textLength="45" x="988.75" y="763.981">Helper</text><line style="stroke:#181818;stroke-width:0.5;" x1="587.5" x2="1402.5" y1="774.69" y2="774.69"/><line style="stroke:#181818;stroke-width:0.5;" x1="587.5" x2="1402.5" y1="782.69" y2="782.69"/><text fill="#000000" font-family="sans-serif" font-size="14" lengthAdjust="spacing" textLength="805" x="592.5" y="800.2252">compute_motion_estimation(prev_frame: Image, next_frame: Image, block_size: int, window_size: int) : MotionVectors</text><text fill="#000000" font-family="sans-serif" font-size="14" lengthAdjust="spacing" textLength="736" x="592.5" y="816.7134">compute_motion_compensation(prev_frame: Image, motion_vectors: MotionVectors, block_size: int) : Image</text></g><!--class Image--><g id="elem_Image"><rect codeLine="60" fill="#F1F1F1" height="196.3945" id="Image" rx="2.5" ry="2.5" style="stroke:#181818;stroke-width:0.5;" width="564" x="1459" y="684.99"/><ellipse cx="1715.75" cy="700.99" fill="#ADD1B2" rx="11" ry="11" style="stroke:#181818;stroke-width:1.0;"/><path d="M1718.2231,707.1331 Q1717.6421,707.4319 1717.0029,707.5813 Q1716.3638,707.7307 1715.6582,707.7307 Q1713.1514,707.7307 1711.8315,706.0789 Q1710.5117,704.427 1710.5117,701.3059 Q1710.5117,698.1765 1711.8315,696.5247 Q1713.1514,694.8728 1715.6582,694.8728 Q1716.3638,694.8728 1717.0112,695.0222 Q1717.6587,695.1716 1718.2231,695.4705 L1718.2231,698.1931 Q1717.5923,697.6121 1716.9988,697.3423 Q1716.4053,697.0725 1715.7744,697.0725 Q1714.4297,697.0725 1713.7449,698.1392 Q1713.0601,699.2058 1713.0601,701.3059 Q1713.0601,703.3977 1713.7449,704.4644 Q1714.4297,705.531 1715.7744,705.531 Q1716.4053,705.531 1716.9988,705.2612 Q1717.5923,704.9915 1718.2231,704.4104 Z " fill="#000000"/><text fill="#000000" font-family="sans-serif" font-size="14" lengthAdjust="spacing" textLength="42" x="1736.25" y="706.281">Image</text><line style="stroke:#181818;stroke-width:0.5;" x1="1460" x2="2022" y1="716.99" y2="716.99"/><ellipse cx="1470" cy="730.7341" fill="none" rx="3" ry="3" style="stroke:#038048;stroke-width:1.0;"/><text fill="#000000" font-family="sans-serif" font-size="14" lengthAdjust="spacing" textLength="125" x="1479" y="734.5252">image: np.ndarray</text><ellipse cx="1470" cy="747.2224" fill="none" rx="3" ry="3" style="stroke:#038048;stroke-width:1.0;"/><text fill="#000000" font-family="sans-serif" font-size="14" lengthAdjust="spacing" textLength="107" x="1479" y="751.0134">color_space: str</text><rect fill="none" height="6" style="stroke:#C82930;stroke-width:1.0;" width="6" x="1467" y="760.7107"/><text fill="#000000" font-family="sans-serif" font-size="14" lengthAdjust="spacing" textLength="186" x="1479" y="767.5017">COLOR_CONVERSIONS: dict</text><line style="stroke:#181818;stroke-width:0.5;" x1="1460" x2="2022" y1="774.4548" y2="774.4548"/><text fill="#000000" font-family="sans-serif" font-size="14" lengthAdjust="spacing" textLength="404" x="1479" y="791.99">__init__(image: np.ndarray, color_space: str = "RGB") : None</text><ellipse cx="1470" cy="804.6873" fill="#84BE84" rx="3" ry="3" style="stroke:#038048;stroke-width:1.0;"/><text fill="#000000" font-family="sans-serif" font-size="14" lengthAdjust="spacing" textLength="538" x="1479" y="808.4783">get_color_spaces(target_space: str) : tuple[np.ndarray, np.ndarray, np.ndarray]</text><ellipse cx="1470" cy="821.1755" fill="#84BE84" rx="3" ry="3" style="stroke:#038048;stroke-width:1.0;"/><text fill="#000000" font-family="sans-serif" font-size="14" lengthAdjust="spacing" textLength="302" x="1479" y="824.9666">switch_color_space(target_space: str) : None</text><ellipse cx="1470" cy="837.6638" fill="#84BE84" rx="3" ry="3" style="stroke:#038048;stroke-width:1.0;"/><text fill="#000000" font-family="sans-serif" font-size="14" lengthAdjust="spacing" textLength="276" x="1479" y="841.4548">print(close_on_key_press = True) : None</text><ellipse cx="1470" cy="854.1521" fill="#84BE84" rx="3" ry="3" style="stroke:#038048;stroke-width:1.0;"/><text fill="#000000" font-family="sans-serif" font-size="14" lengthAdjust="spacing" textLength="226" x="1479" y="857.9431">operator +(other: Image) : Image</text><ellipse cx="1470" cy="870.6404" fill="#84BE84" rx="3" ry="3" style="stroke:#038048;stroke-width:1.0;"/><text fill="#000000" font-family="sans-serif" font-size="14" lengthAdjust="spacing" textLength="223" x="1479" y="874.4314">operator -(other: Image) : Image</text></g><!--class Compresser--><g id="elem_Compresser"><rect codeLine="73" fill="#F1F1F1" height="97.4648" id="Compresser" rx="2.5" ry="2.5" style="stroke:#181818;stroke-width:0.5;" width="555" x="2811.5" y="734.45"/><ellipse cx="3043.25" cy="750.45" fill="#ADD1B2" rx="11" ry="11" style="stroke:#181818;stroke-width:1.0;"/><path d="M3045.7231,756.5931 Q3045.1421,756.8919 3044.5029,757.0413 Q3043.8638,757.1907 3043.1582,757.1907 Q3040.6514,757.1907 3039.3315,755.5389 Q3038.0117,753.887 3038.0117,750.7659 Q3038.0117,747.6365 3039.3315,745.9847 Q3040.6514,744.3328 3043.1582,744.3328 Q3043.8638,744.3328 3044.5112,744.4822 Q3045.1587,744.6316 3045.7231,744.9305 L3045.7231,747.6531 Q3045.0923,747.0721 3044.4988,746.8023 Q3043.9053,746.5325 3043.2744,746.5325 Q3041.9297,746.5325 3041.2449,747.5992 Q3040.5601,748.6658 3040.5601,750.7659 Q3040.5601,752.8577 3041.2449,753.9244 Q3041.9297,754.991 3043.2744,754.991 Q3043.9053,754.991 3044.4988,754.7212 Q3045.0923,754.4515 3045.7231,753.8704 Z " fill="#000000"/><text fill="#000000" font-family="sans-serif" font-size="14" lengthAdjust="spacing" textLength="83" x="3063.75" y="755.741">Compresser</text><line style="stroke:#181818;stroke-width:0.5;" x1="2812.5" x2="3365.5" y1="766.45" y2="766.45"/><line style="stroke:#181818;stroke-width:0.5;" x1="2812.5" x2="3365.5" y1="774.45" y2="774.45"/><ellipse cx="2822.5" cy="788.1941" fill="#84BE84" rx="3" ry="3" style="stroke:#038048;stroke-width:1.0;"/><text fill="#000000" font-family="sans-serif" font-size="14" lengthAdjust="spacing" textLength="241" x="2831.5" y="791.9852">compress(bytes_data: bytes) : bytes</text><ellipse cx="2822.5" cy="804.6824" fill="#84BE84" rx="3" ry="3" style="stroke:#038048;stroke-width:1.0;"/><text fill="#000000" font-family="sans-serif" font-size="14" lengthAdjust="spacing" textLength="287" x="2831.5" y="808.4734">decompress(encoded_bytes: bytes) : bytes</text><ellipse cx="2822.5" cy="821.1707" fill="#84BE84" rx="3" ry="3" style="stroke:#038048;stroke-width:1.0;"/><text fill="#000000" font-family="sans-serif" font-size="14" lengthAdjust="spacing" textLength="529" x="2831.5" y="824.9617">compute_compression_ratio(original_data: bytes, encoded_data: bytes) : float</text></g><!--class Jpeg--><g id="elem_Jpeg"><rect codeLine="79" fill="#F1F1F1" height="476.6953" id="Jpeg" rx="2.5" ry="2.5" style="stroke:#181818;stroke-width:0.5;" width="719" x="2057.5" y="544.83"/><ellipse cx="2397.75" cy="560.83" fill="#ADD1B2" rx="11" ry="11" style="stroke:#181818;stroke-width:1.0;"/><path d="M2400.2231,566.9731 Q2399.6421,567.2719 2399.0029,567.4213 Q2398.3638,567.5707 2397.6582,567.5707 Q2395.1514,567.5707 2393.8315,565.9189 Q2392.5117,564.267 2392.5117,561.1459 Q2392.5117,558.0165 2393.8315,556.3647 Q2395.1514,554.7128 2397.6582,554.7128 Q2398.3638,554.7128 2399.0112,554.8622 Q2399.6587,555.0116 2400.2231,555.3105 L2400.2231,558.0331 Q2399.5923,557.4521 2398.9988,557.1823 Q2398.4053,556.9125 2397.7744,556.9125 Q2396.4297,556.9125 2395.7449,557.9792 Q2395.0601,559.0458 2395.0601,561.1459 Q2395.0601,563.2377 2395.7449,564.3044 Q2396.4297,565.371 2397.7744,565.371 Q2398.4053,565.371 2398.9988,565.1012 Q2399.5923,564.8315 2400.2231,564.2504 Z " fill="#000000"/><text fill="#000000" font-family="sans-serif" font-size="14" lengthAdjust="spacing" textLength="30" x="2418.25" y="566.121">Jpeg</text><line style="stroke:#181818;stroke-width:0.5;" x1="2058.5" x2="2775.5" y1="576.83" y2="576.83"/><rect fill="none" height="6" style="stroke:#C82930;stroke-width:1.0;" width="6" x="2065.5" y="587.5741"/><text fill="#000000" font-family="sans-serif" font-size="14" lengthAdjust="spacing" textLength="214" x="2077.5" y="594.3652">DOWNSAMPLE_FACTOR: int = 2</text><rect fill="none" height="6" style="stroke:#C82930;stroke-width:1.0;" width="6" x="2065.5" y="604.0624"/><text fill="#000000" font-family="sans-serif" font-size="14" lengthAdjust="spacing" textLength="134" x="2077.5" y="610.8534">BLOCK_SIZE: int = 8</text><rect fill="none" height="6" style="stroke:#C82930;stroke-width:1.0;" width="6" x="2065.5" y="620.5507"/><text fill="#000000" font-family="sans-serif" font-size="14" lengthAdjust="spacing" textLength="111" x="2077.5" y="627.3417">SHIFT: int = 128</text><rect fill="none" height="6" style="stroke:#C82930;stroke-width:1.0;" width="6" x="2065.5" y="637.039"/><text fill="#000000" font-family="sans-serif" font-size="14" lengthAdjust="spacing" textLength="337" x="2077.5" y="643.83">QUANTIZATION_MATRIX_LUMINANCE: np.ndarray</text><rect fill="none" height="6" style="stroke:#C82930;stroke-width:1.0;" width="6" x="2065.5" y="653.5273"/><text fill="#000000" font-family="sans-serif" font-size="14" lengthAdjust="spacing" textLength="360" x="2077.5" y="660.3183">QUANTIZATION_MATRIX_CHROMINANCE: np.ndarray</text><rect fill="none" height="6" style="stroke:#C82930;stroke-width:1.0;" width="6" x="2065.5" y="670.0155"/><text fill="#000000" font-family="sans-serif" font-size="14" lengthAdjust="spacing" textLength="115" x="2077.5" y="676.8066">y_rle: np.ndarray</text><rect fill="none" height="6" style="stroke:#C82930;stroke-width:1.0;" width="6" x="2065.5" y="686.5038"/><text fill="#000000" font-family="sans-serif" font-size="14" lengthAdjust="spacing" textLength="124" x="2077.5" y="693.2948">cb_rle: np.ndarray</text><rect fill="none" height="6" style="stroke:#C82930;stroke-width:1.0;" width="6" x="2065.5" y="702.9921"/><text fill="#000000" font-family="sans-serif" font-size="14" lengthAdjust="spacing" textLength="121" x="2077.5" y="709.7831">cr_rle: np.ndarray</text><rect fill="none" height="6" style="stroke:#C82930;stroke-width:1.0;" width="6" x="2065.5" y="719.4804"/><text fill="#000000" font-family="sans-serif" font-size="14" lengthAdjust="spacing" textLength="202" x="2077.5" y="726.2714">original_shape: Tuple[int, int]</text><line style="stroke:#181818;stroke-width:0.5;" x1="2058.5" x2="2775.5" y1="733.2245" y2="733.2245"/><text fill="#000000" font-family="sans-serif" font-size="14" lengthAdjust="spacing" textLength="255" x="2077.5" y="750.7597">__init__(image: Image = None) : None</text><ellipse cx="2068.5" cy="763.457" fill="#84BE84" rx="3" ry="3" style="stroke:#038048;stroke-width:1.0;"/><text fill="#000000" font-family="sans-serif" font-size="14" lengthAdjust="spacing" textLength="200" x="2077.5" y="767.248">encode(image: Image) : None</text><ellipse cx="2068.5" cy="779.9452" fill="#84BE84" rx="3" ry="3" style="stroke:#038048;stroke-width:1.0;"/><text fill="#000000" font-family="sans-serif" font-size="14" lengthAdjust="spacing" textLength="114" x="2077.5" y="783.7362">decode() : Image</text><ellipse cx="2068.5" cy="796.4335" fill="#84BE84" rx="3" ry="3" style="stroke:#038048;stroke-width:1.0;"/><text fill="#000000" font-family="sans-serif" font-size="14" lengthAdjust="spacing" textLength="241" x="2077.5" y="800.2245">load_from_file(filename: str) : None</text><rect fill="#F24D5C" height="6" style="stroke:#C82930;stroke-width:1.0;" width="6" x="2065.5" y="809.9218"/><text fill="#000000" font-family="sans-serif" font-size="14" lengthAdjust="spacing" textLength="454" x="2077.5" y="816.7128">_downsample_matrix(matrix: np.ndarray, dtype: type) : np.ndarray</text><rect fill="#F24D5C" height="6" style="stroke:#C82930;stroke-width:1.0;" width="6" x="2065.5" y="826.4101"/><text fill="#000000" font-family="sans-serif" font-size="14" lengthAdjust="spacing" textLength="434" x="2077.5" y="833.2011">_upsample_matrix(matrix: np.ndarray, dtype: type) : np.ndarray</text><rect fill="#F24D5C" height="6" style="stroke:#C82930;stroke-width:1.0;" width="6" x="2065.5" y="842.8984"/><text fill="#000000" font-family="sans-serif" font-size="14" lengthAdjust="spacing" textLength="481" x="2077.5" y="849.6894">_blockproc(matrix: np.ndarray, func: callable, dtype: type) : np.ndarray</text><rect fill="#F24D5C" height="6" style="stroke:#C82930;stroke-width:1.0;" width="6" x="2065.5" y="859.3866"/><text fill="#000000" font-family="sans-serif" font-size="14" lengthAdjust="spacing" textLength="380" x="2077.5" y="866.1777">_apply_dct(matrix: np.ndarray, dtype: type) : np.ndarray</text><rect fill="#F24D5C" height="6" style="stroke:#C82930;stroke-width:1.0;" width="6" x="2065.5" y="875.8749"/><text fill="#000000" font-family="sans-serif" font-size="14" lengthAdjust="spacing" textLength="384" x="2077.5" y="882.6659">_apply_idct(matrix: np.ndarray, dtype: type) : np.ndarray</text><rect fill="#F24D5C" height="6" style="stroke:#C82930;stroke-width:1.0;" width="6" x="2065.5" y="892.3632"/><text fill="#000000" font-family="sans-serif" font-size="14" lengthAdjust="spacing" textLength="676" x="2077.5" y="899.1542">_apply_quantization(matrix: np.ndarray, quantization_matrix: np.ndarray, dtype: type) : np.ndarray</text><rect fill="#F24D5C" height="6" style="stroke:#C82930;stroke-width:1.0;" width="6" x="2065.5" y="908.8515"/><text fill="#000000" font-family="sans-serif" font-size="14" lengthAdjust="spacing" textLength="693" x="2077.5" y="915.6425">_apply_dequantization(matrix: np.ndarray, quantization_matrix: np.ndarray, dtype: type) : np.ndarray</text><rect fill="#F24D5C" height="6" style="stroke:#C82930;stroke-width:1.0;" width="6" x="2065.5" y="925.3398"/><text fill="#000000" font-family="sans-serif" font-size="14" lengthAdjust="spacing" textLength="405" x="2077.5" y="932.1308">_apply_zigzag(matrix: np.ndarray, dtype: type) : np.ndarray</text><rect fill="#F24D5C" height="6" style="stroke:#C82930;stroke-width:1.0;" width="6" x="2065.5" y="941.828"/><text fill="#000000" font-family="sans-serif" font-size="14" lengthAdjust="spacing" textLength="664" x="2077.5" y="948.6191">_apply_izigzag(zigzag_matrix: np.ndarray, matrix_shape: Tuple[int, int], dtype: type) : np.ndarray</text><rect fill="#F24D5C" height="6" style="stroke:#C82930;stroke-width:1.0;" width="6" x="2065.5" y="958.3163"/><text fill="#000000" font-family="sans-serif" font-size="14" lengthAdjust="spacing" textLength="338" x="2077.5" y="965.1073">_apply_dc_subtraction(matrix: np.ndarray) : None</text><rect fill="#F24D5C" height="6" style="stroke:#C82930;stroke-width:1.0;" width="6" x="2065.5" y="974.8046"/><text fill="#000000" font-family="sans-serif" font-size="14" lengthAdjust="spacing" textLength="317" x="2077.5" y="981.5956">_apply_dc_addition(matrix: np.ndarray) : None</text><rect fill="#F24D5C" height="6" style="stroke:#C82930;stroke-width:1.0;" width="6" x="2065.5" y="991.2929"/><text fill="#000000" font-family="sans-serif" font-size="14" lengthAdjust="spacing" textLength="377" x="2077.5" y="998.0839">_apply_rle(matrix: np.ndarray, dtype: type) : np.ndarray</text><rect fill="#F24D5C" height="6" style="stroke:#C82930;stroke-width:1.0;" width="6" x="2065.5" y="1007.7812"/><text fill="#000000" font-family="sans-serif" font-size="14" lengthAdjust="spacing" textLength="394" x="2077.5" y="1014.5722">_apply_irle(rle_rows: np.ndarray, dtype: type) : np.ndarray</text></g><!--link VideoDecoder to Decoder--><g id="link_VideoDecoder_Decoder"><path codeLine="111" d="M2007.01,188.29 C1959.71,217.73 1910.3236,248.479 1863.0336,277.919 " fill="none" id="VideoDecoder-to-Decoder" style="stroke:#181818;stroke-width:1.0;"/><polygon fill="#181818" points="1857.94,281.09,1867.6944,279.7293,1862.1847,278.4475,1863.4664,272.9378,1857.94,281.09" style="stroke:#181818;stroke-width:1.0;"/></g><!--link VideoDecoder to Receiver--><g id="link_VideoDecoder_Receiver"><path codeLine="112" d="M2128.19,188.35 C2129.61,203.79 2131.5,219.94 2134,234.93 C2135.61,244.59 2136.3159,248.7612 2138.5159,258.7212 " fill="none" id="VideoDecoder-to-Receiver" style="stroke:#181818;stroke-width:1.0;"/><polygon fill="#181818" points="2139.81,264.58,2141.7747,254.9291,2138.7316,259.6977,2133.963,256.6546,2139.81,264.58" style="stroke:#181818;stroke-width:1.0;"/></g><!--link Receiver to VideoDecoder--><g id="link_Receiver_VideoDecoder"><path codeLine="118" d="M2149.03,264.68 C2144.81,239.49 2141.252,218.3074 2137.212,194.2074 " fill="none" id="Receiver-to-VideoDecoder" style="stroke:#181818;stroke-width:1.0;"/><polygon fill="#181818" points="2136.22,188.29,2133.763,197.8275,2137.0466,193.2212,2141.6529,196.5048,2136.22,188.29" style="stroke:#181818;stroke-width:1.0;"/><text fill="#000000" font-family="sans-serif" font-size="13" lengthAdjust="spacing" textLength="52" x="2145" y="231.4984">callback</text></g><!--link Decoder to Jpeg--><g id="link_Decoder_Jpeg"><path codeLine="114" d="M1904.14,428.75 C1949.07,450.63 1997.2,475.78 2040,501.83 C2061.95,515.19 2079.2143,526.1719 2101.3643,541.0019 " fill="none" id="Decoder-to-Jpeg" style="stroke:#181818;stroke-width:1.0;"/><polygon fill="#181818" points="2106.35,544.34,2101.0968,536.0091,2102.1952,541.5583,2096.6461,542.6567,2106.35,544.34" style="stroke:#181818;stroke-width:1.0;"/></g><!--link Decoder to MotionVectors--><g id="link_Decoder_MotionVectors"><path codeLine="115" d="M1477.29,368.93 C1181.9,386.99 724.14,426.28 569,501.83 C479.78,545.28 405.5706,623.6308 354.3806,688.1108 " fill="none" id="Decoder-to-MotionVectors" style="stroke:#181818;stroke-width:1.0;"/><polygon fill="#181818" points="350.65,692.81,359.3787,688.2483,353.7589,688.894,353.1132,683.2741,350.65,692.81" style="stroke:#181818;stroke-width:1.0;"/></g><!--link Decoder to Image--><g id="link_Decoder_Image"><path codeLine="116" d="M1741,428.68 C1741,499.19 1741,600.59 1741,678.5 " fill="none" id="Decoder-to-Image" style="stroke:#181818;stroke-width:1.0;"/><polygon fill="#181818" points="1741,684.5,1745,675.5,1741,679.5,1737,675.5,1741,684.5" style="stroke:#181818;stroke-width:1.0;"/></g><!--link Receiver to Compresser--><g id="link_Receiver_Compresser"><path codeLine="119" d="M2288.92,365.3 C2421.19,379.59 2632.73,415.03 2794,501.83 C2903.34,560.69 2997.832,666.1927 3048.682,729.4827 " fill="none" id="Receiver-to-Compresser" style="stroke:#181818;stroke-width:1.0;stroke-dasharray:7.0,7.0;"/><polygon fill="#181818" points="3052.44,734.16,3049.9213,724.6387,3049.3083,730.2622,3043.6848,729.6493,3052.44,734.16" style="stroke:#181818;stroke-width:1.0;"/><text fill="#000000" font-family="sans-serif" font-size="13" lengthAdjust="spacing" textLength="29" x="2779" y="490.3984">uses</text></g><!--link Decoder to Helper--><g id="link_Decoder_Helper"><path codeLine="121" d="M1584.38,428.82 C1538.32,451.27 1488.19,476.72 1443,501.83 C1300.05,581.29 1143.9664,682.6879 1059.3064,738.9779 " fill="none" id="Decoder-to-Helper" style="stroke:#181818;stroke-width:1.0;stroke-dasharray:7.0,7.0;"/><polygon fill="#181818" points="1054.31,742.3,1064.0193,740.6478,1058.4737,739.5316,1059.5899,733.986,1054.31,742.3" style="stroke:#181818;stroke-width:1.0;"/><text fill="#000000" font-family="sans-serif" font-size="13" lengthAdjust="spacing" textLength="29" x="1483" y="490.3984">uses</text></g><!--SRC=[lLTjRzis4FxkNq7aaxhOATOFmo1W1LmtNRmbTcUxsT2Y86Y9iOd8eaPIJfoX_trtUZDfKKPUYXgmHF7kdZiUxuNCM7JBLfoSn3oIiKXN9-I_7e5Vb32joRM8kNoF9Aug0lu692xdGb8HBTADOXjE8vcd1Xb4QYnYfk2R5Ymw94if4ukeUCJ55eLcrQZNK2aLgJ2K1cq4yXjPg9o_8Y6Po9Gt8gUWJKPSwv8xY9bXoDHe_TQpbkfR9H0ClUMx4Y0aumtuog8l4ndTKYqUUBdEjhK7763gpxzu32tT2K96iShQIkKV6L-XWAkwaSWKZqLaU5n9SQMe9TadcoruwKeQ8TDh7Xcfz16qfOW5R08oi-IvY8vNwurqt1h93TYjDUxqg1dR32n9bX2POJ5YoyHsEh028DNWM6v2KhxFofUZ94sxgIoEGRd9Cu1kxrfRlsVFgcYb65Q1XnubKdEN0AxfmJ-hasvJU15JpdAPurh7RoKxtPQaaAJPMHepfTZEiuOr5wkrgQCEJUYJEn6RjJlLWB5qLqrwrgAvgTHM4NrVeFIh3DXLN_TqovASLryxwyk3kNeC9ifPoznBoumh1hBaD91cZP7K2abdmYSwUBxeJu66q60WUvD8PXuby_enCaxsNF0aSt87CoStd5QHmBKH6uP3A8jywvIfFadvlJcOEYX7615fBE_sCzqBEL2DdppLdSeFOzK1RHdIgY1sbWWak7sfuBNySaeAfevOYMGYeM00871eOrUQqVHoEgEZwUJwV3OVJoVpa60zRJZQUTLIr6_XGnwTp7v_Tz8Hz1Qx3WnJEBSNHg6YBdsnLVZ7N-qKlHCcMjlWVknMYmJt1qMjeh1VsEoAUjpTLDkPL-o6hwsqCyt3waJylXqukrjtZ62vCrmN9HVwE8wBXew3WsvMyVCK6rjC2vOZ8dLqru8Okmg3Ev1Ah0IsGqjfdzIu1vOKYTrU5JPEfvA_d_uzcG-lFbwUqm_3qM8wgulo6ulftULqz2UTZp-VrzHVBUhyOlnXqHmgtjYalpuD9ulnv-420ffU3HUpyJ_qyjFLU3ASZCwzEUAN6LtCfiUbTbGbl8CMBOyHrH5YutAzPXamBOfqAEeLFBxsEfEoB0kTNQpSD8UvyomM-E8PTXSFMd93RqG2HpHuf4NHy-NMW50ehL0YDs0zXJAjn7rGljpo4PiThXAV7UqEeFBiEm4LbHSFnbw8cpoDzgUUHqAoB4jsD8xCywqg8SHtmFWtPwaH3sLZyc7P3FI5ocB-GzKzYDK3MxtOonLC-VBQLCvrvDyJeuBgV0dNcgZ3GxwyQKJXc2wUB0U5vSKkGWpuKoNlz5DGlk79fUTScmU3jyqjkKNONtJjMUmNpeHx9BCfPOdgDVSid7EqXCrjQizqTlRMxhGXoJLqmmONoTNHioBz3m00]--></g></svg>