<svg xmlns="http://www.w3.org/2000/svg" xmlns:xlink="http://www.w3.org/1999/xlink" contentStyleType="text/css" height="1126px" preserveAspectRatio="none" style="width:3388px;height:1126px;background:#FFFFFF;" version="1.1" viewBox="0 0 3388 1126" width="3388px" zoomAndPan="magnify"><defs/><g><!--cluster encoding--><g id="cluster_encoding"><path d="M1662.5,6 L1728.5,6 A3.75,3.75 0 0 1 1731,8.5 L1738,28.4883 L2709.5,28.4883 A2.5,2.5 0 0 1 2712,30.9883 L2712,540.26 A2.5,2.5 0 0 1 2709.5,542.76 L1662.5,542.76 A2.5,2.5 0 0 1 1660,540.26 L1660,8.5 A2.5,2.5 0 0 1 1662.5,6 " fill="none" style="stroke:#000000;stroke-width:1.5;"/><line style="stroke:#000000;stroke-width:1.5;" x1="1660" x2="1738" y1="28.4883" y2="28.4883"/><text fill="#000000" font-family="sans-serif" font-size="14" font-weight="bold" lengthAdjust="spacing" textLength="65" x="1664" y="21.5352">encoding</text></g><!--cluster motion--><g id="cluster_motion"><path d="M8.5,740.16 L61.5,740.16 A3.75,3.75 0 0 1 64,742.66 L71,762.6483 L1416.5,762.6483 A2.5,2.5 0 0 1 1419,765.1483 L1419,968.57 A2.5,2.5 0 0 1 1416.5,971.07 L8.5,971.07 A2.5,2.5 0 0 1 6,968.57 L6,742.66 A2.5,2.5 0 0 1 8.5,740.16 " fill="none" style="stroke:#000000;stroke-width:1.5;"/><line style="stroke:#000000;stroke-width:1.5;" x1="6" x2="71" y1="762.6483" y2="762.6483"/><text fill="#000000" font-family="sans-serif" font-size="14" font-weight="bold" lengthAdjust="spacing" textLength="52" x="10" y="755.6952">motion</text></g><!--cluster image--><g id="cluster_image"><path d="M1445.5,591.76 L1490.5,591.76 A3.75,3.75 0 0 1 1493,594.26 L1500,614.2483 L3378.5,614.2483 A2.5,2.5 0 0 1 3381,616.7483 L3381,1116.96 A2.5,2.5 0 0 1 3378.5,1119.46 L1445.5,1119.46 A2.5,2.5 0 0 1 1443,1116.96 L1443,594.26 A2.5,2.5 0 0 1 1445.5,591.76 " fill="none" style="stroke:#000000;stroke-width:1.5;"/><line style="stroke:#000000;stroke-width:1.5;" x1="1443" x2="1500" y1="614.2483" y2="614.2483"/><text fill="#000000" font-family="sans-serif" font-size="14" font-weight="bold" lengthAdjust="spacing" textLength="44" x="1447" y="607.2952">image</text></g><!--class VideoEncoder--><g id="elem_VideoEncoder"><rect codeLine="4" fill="#F1F1F1" height="262.3477" id="VideoEncoder" rx="2.5" ry="2.5" style="stroke:#181818;stroke-width:0.5;" width="207" x="2247.5" y="41"/><ellipse cx="2299.25" cy="57" fill="#ADD1B2" rx="11" ry="11" style="stroke:#181818;stroke-width:1.0;"/><path d="M2301.7231,63.1431 Q2301.1421,63.4419 2300.5029,63.5913 Q2299.8638,63.7407 2299.1582,63.7407 Q2296.6514,63.7407 2295.3315,62.0889 Q2294.0117,60.437 2294.0117,57.3159 Q2294.0117,54.1865 2295.3315,52.5347 Q2296.6514,50.8828 2299.1582,50.8828 Q2299.8638,50.8828 2300.5112,51.0322 Q2301.1587,51.1816 2301.7231,51.4805 L2301.7231,54.2031 Q2301.0923,53.6221 2300.4988,53.3523 Q2299.9053,53.0825 2299.2744,53.0825 Q2297.9297,53.0825 2297.2449,54.1492 Q2296.5601,55.2158 2296.5601,57.3159 Q2296.5601,59.4077 2297.2449,60.4744 Q2297.9297,61.541 2299.2744,61.541 Q2299.9053,61.541 2300.4988,61.2712 Q2301.0923,61.0015 2301.7231,60.4204 Z " fill="#000000"/><text fill="#000000" font-family="sans-serif" font-size="14" lengthAdjust="spacing" textLength="95" x="2319.75" y="62.291">VideoEncoder</text><line style="stroke:#181818;stroke-width:0.5;" x1="2248.5" x2="2453.5" y1="73" y2="73"/><rect fill="none" height="6" style="stroke:#C82930;stroke-width:1.0;" width="6" x="2255.5" y="83.7441"/><text fill="#000000" font-family="sans-serif" font-size="14" lengthAdjust="spacing" textLength="133" x="2267.5" y="90.5352">FRAME_ORDER : list</text><rect fill="none" height="6" style="stroke:#C82930;stroke-width:1.0;" width="6" x="2255.5" y="100.2324"/><text fill="#000000" font-family="sans-serif" font-size="14" lengthAdjust="spacing" textLength="61" x="2267.5" y="107.0234">path : str</text><rect fill="none" height="6" style="stroke:#C82930;stroke-width:1.0;" width="6" x="2255.5" y="116.7207"/><text fill="#000000" font-family="sans-serif" font-size="14" lengthAdjust="spacing" textLength="124" x="2267.5" y="123.5117">encoder : Encoder</text><rect fill="none" height="6" style="stroke:#C82930;stroke-width:1.0;" width="6" x="2255.5" y="133.209"/><text fill="#000000" font-family="sans-serif" font-size="14" lengthAdjust="spacing" textLength="144" x="2267.5" y="140">reader : VideoReader</text><rect fill="none" height="6" style="stroke:#C82930;stroke-width:1.0;" width="6" x="2255.5" y="149.6973"/><text fill="#000000" font-family="sans-serif" font-size="14" lengthAdjust="spacing" textLength="168" x="2267.5" y="156.4883">transmitter : Transmitter</text><rect fill="none" height="6" style="stroke:#C82930;stroke-width:1.0;" width="6" x="2255.5" y="166.1855"/><text fill="#000000" font-family="sans-serif" font-size="14" lengthAdjust="spacing" textLength="130" x="2267.5" y="172.9766">frame_counter : int</text><rect fill="none" height="6" style="stroke:#C82930;stroke-width:1.0;" width="6" x="2255.5" y="182.6738"/><text fill="#000000" font-family="sans-serif" font-size="14" lengthAdjust="spacing" textLength="121" x="2267.5" y="189.4648">frame_buffer : list</text><rect fill="none" height="6" style="stroke:#C82930;stroke-width:1.0;" width="6" x="2255.5" y="199.1621"/><text fill="#000000" font-family="sans-serif" font-size="14" lengthAdjust="spacing" textLength="125" x="2267.5" y="205.9531">clear_buffer : bool</text><rect fill="none" height="6" style="stroke:#C82930;stroke-width:1.0;" width="6" x="2255.5" y="215.6504"/><text fill="#000000" font-family="sans-serif" font-size="14" lengthAdjust="spacing" textLength="114" x="2267.5" y="222.4414">send_buffer : list</text><line style="stroke:#181818;stroke-width:0.5;" x1="2248.5" x2="2453.5" y1="229.3945" y2="229.3945"/><text fill="#000000" font-family="sans-serif" font-size="14" lengthAdjust="spacing" textLength="165" x="2267.5" y="246.9297">__init__(path: str) : None</text><ellipse cx="2258.5" cy="259.627" fill="#84BE84" rx="3" ry="3" style="stroke:#038048;stroke-width:1.0;"/><text fill="#000000" font-family="sans-serif" font-size="14" lengthAdjust="spacing" textLength="181" x="2267.5" y="263.418">encode_next_frame() : any</text><ellipse cx="2258.5" cy="276.1152" fill="#84BE84" rx="3" ry="3" style="stroke:#038048;stroke-width:1.0;"/><text fill="#000000" font-family="sans-serif" font-size="14" lengthAdjust="spacing" textLength="176" x="2267.5" y="279.9063">send_next_frame() : None</text><ellipse cx="2258.5" cy="292.6035" fill="#84BE84" rx="3" ry="3" style="stroke:#038048;stroke-width:1.0;"/><text fill="#000000" font-family="sans-serif" font-size="14" lengthAdjust="spacing" textLength="93" x="2267.5" y="296.3945">close() : None</text></g><!--class Encoder--><g id="elem_Encoder"><rect codeLine="21" fill="#F1F1F1" height="163.418" id="Encoder" rx="2.5" ry="2.5" style="stroke:#181818;stroke-width:0.5;" width="545" x="1675.5" y="363.35"/><ellipse cx="1915.75" cy="379.35" fill="#ADD1B2" rx="11" ry="11" style="stroke:#181818;stroke-width:1.0;"/><path d="M1918.2231,385.4931 Q1917.6421,385.7919 1917.0029,385.9413 Q1916.3638,386.0907 1915.6582,386.0907 Q1913.1514,386.0907 1911.8315,384.4389 Q1910.5117,382.787 1910.5117,379.6659 Q1910.5117,376.5365 1911.8315,374.8847 Q1913.1514,373.2328 1915.6582,373.2328 Q1916.3638,373.2328 1917.0112,373.3822 Q1917.6587,373.5316 1918.2231,373.8305 L1918.2231,376.5531 Q1917.5923,375.9721 1916.9988,375.7023 Q1916.4053,375.4325 1915.7744,375.4325 Q1914.4297,375.4325 1913.7449,376.4992 Q1913.0601,377.5658 1913.0601,379.6659 Q1913.0601,381.7577 1913.7449,382.8244 Q1914.4297,383.891 1915.7744,383.891 Q1916.4053,383.891 1916.9988,383.6212 Q1917.5923,383.3515 1918.2231,382.7704 Z " fill="#000000"/><text fill="#000000" font-family="sans-serif" font-size="14" lengthAdjust="spacing" textLength="56" x="1936.25" y="384.641">Encoder</text><line style="stroke:#181818;stroke-width:0.5;" x1="1676.5" x2="2219.5" y1="395.35" y2="395.35"/><rect fill="none" height="6" style="stroke:#C82930;stroke-width:1.0;" width="6" x="1683.5" y="406.0941"/><text fill="#000000" font-family="sans-serif" font-size="14" lengthAdjust="spacing" textLength="136" x="1695.5" y="412.8852">last_key_frames: list</text><rect fill="none" height="6" style="stroke:#C82930;stroke-width:1.0;" width="6" x="1683.5" y="422.5824"/><text fill="#000000" font-family="sans-serif" font-size="14" lengthAdjust="spacing" textLength="97" x="1695.5" y="429.3734">block_size: int</text><rect fill="none" height="6" style="stroke:#C82930;stroke-width:1.0;" width="6" x="1683.5" y="439.0707"/><text fill="#000000" font-family="sans-serif" font-size="14" lengthAdjust="spacing" textLength="113" x="1695.5" y="445.8617">window_size: int</text><line style="stroke:#181818;stroke-width:0.5;" x1="1676.5" x2="2219.5" y1="452.8148" y2="452.8148"/><text fill="#000000" font-family="sans-serif" font-size="14" lengthAdjust="spacing" textLength="391" x="1695.5" y="470.35">__init__(block_size: int = 16, window_size: int = 8) : None</text><ellipse cx="1686.5" cy="483.0473" fill="#84BE84" rx="3" ry="3" style="stroke:#038048;stroke-width:1.0;"/><text fill="#000000" font-family="sans-serif" font-size="14" lengthAdjust="spacing" textLength="313" x="1695.5" y="486.8383">encode_intra_frame(curr_frame: Image) : Jpeg</text><ellipse cx="1686.5" cy="499.5355" fill="#84BE84" rx="3" ry="3" style="stroke:#038048;stroke-width:1.0;"/><text fill="#000000" font-family="sans-serif" font-size="14" lengthAdjust="spacing" textLength="498" x="1695.5" y="503.3266">encode_predicted_frame(curr_frame: Image) : tuple[Jpeg, MotionVectors]</text><ellipse cx="1686.5" cy="516.0238" fill="#84BE84" rx="3" ry="3" style="stroke:#038048;stroke-width:1.0;"/><text fill="#000000" font-family="sans-serif" font-size="14" lengthAdjust="spacing" textLength="519" x="1695.5" y="519.8148">encode_bidirectional_frame(curr_frame: Image) : tuple[Jpeg, MotionVectors]</text></g><!--class Transmitter--><g id="elem_Transmitter"><rect codeLine="32" fill="#F1F1F1" height="146.9297" id="Transmitter" rx="2.5" ry="2.5" style="stroke:#181818;stroke-width:0.5;" width="214" x="2482" y="371.59"/><ellipse cx="2544.75" cy="387.59" fill="#ADD1B2" rx="11" ry="11" style="stroke:#181818;stroke-width:1.0;"/><path d="M2547.2231,393.7331 Q2546.6421,394.0319 2546.0029,394.1813 Q2545.3638,394.3307 2544.6582,394.3307 Q2542.1514,394.3307 2540.8315,392.6789 Q2539.5117,391.027 2539.5117,387.9059 Q2539.5117,384.7765 2540.8315,383.1247 Q2542.1514,381.4728 2544.6582,381.4728 Q2545.3638,381.4728 2546.0112,381.6222 Q2546.6587,381.7716 2547.2231,382.0705 L2547.2231,384.7931 Q2546.5923,384.2121 2545.9988,383.9423 Q2545.4053,383.6725 2544.7744,383.6725 Q2543.4297,383.6725 2542.7449,384.7392 Q2542.0601,385.8058 2542.0601,387.9059 Q2542.0601,389.9977 2542.7449,391.0644 Q2543.4297,392.131 2544.7744,392.131 Q2545.4053,392.131 2545.9988,391.8612 Q2546.5923,391.5915 2547.2231,391.0104 Z " fill="#000000"/><text fill="#000000" font-family="sans-serif" font-size="14" lengthAdjust="spacing" textLength="80" x="2565.25" y="392.881">Transmitter</text><line style="stroke:#181818;stroke-width:0.5;" x1="2483" x2="2695" y1="403.59" y2="403.59"/><rect fill="none" height="6" style="stroke:#C82930;stroke-width:1.0;" width="6" x="2490" y="414.3341"/><text fill="#000000" font-family="sans-serif" font-size="14" lengthAdjust="spacing" textLength="93" x="2502" y="421.1252">total_sent: int</text><rect fill="none" height="6" style="stroke:#C82930;stroke-width:1.0;" width="6" x="2490" y="430.8224"/><text fill="#000000" font-family="sans-serif" font-size="14" lengthAdjust="spacing" textLength="171" x="2502" y="437.6134">compresser: Compresser</text><rect fill="none" height="6" style="stroke:#C82930;stroke-width:1.0;" width="6" x="2490" y="447.3107"/><text fill="#000000" font-family="sans-serif" font-size="14" lengthAdjust="spacing" textLength="188" x="2502" y="454.1017">client_socket: socket.socket</text><line style="stroke:#181818;stroke-width:0.5;" x1="2483" x2="2695" y1="461.0548" y2="461.0548"/><text fill="#000000" font-family="sans-serif" font-size="14" lengthAdjust="spacing" textLength="108" x="2502" y="478.59">__init__() : None</text><ellipse cx="2493" cy="491.2873" fill="#84BE84" rx="3" ry="3" style="stroke:#038048;stroke-width:1.0;"/><text fill="#000000" font-family="sans-serif" font-size="14" lengthAdjust="spacing" textLength="145" x="2502" y="495.0783">send(obj: any) : None</text><ellipse cx="2493" cy="507.7755" fill="#84BE84" rx="3" ry="3" style="stroke:#038048;stroke-width:1.0;"/><text fill="#000000" font-family="sans-serif" font-size="14" lengthAdjust="spacing" textLength="93" x="2502" y="511.5666">close() : None</text></g><!--class VideoReader--><g id="elem_VideoReader"><rect codeLine="42" fill="#F1F1F1" height="130.4414" id="VideoReader" rx="2.5" ry="2.5" style="stroke:#181818;stroke-width:0.5;" width="191" x="2255.5" y="379.84"/><ellipse cx="2303.25" cy="395.84" fill="#ADD1B2" rx="11" ry="11" style="stroke:#181818;stroke-width:1.0;"/><path d="M2305.7231,401.9831 Q2305.1421,402.2819 2304.5029,402.4313 Q2303.8638,402.5807 2303.1582,402.5807 Q2300.6514,402.5807 2299.3315,400.9289 Q2298.0117,399.277 2298.0117,396.1559 Q2298.0117,393.0265 2299.3315,391.3747 Q2300.6514,389.7228 2303.1582,389.7228 Q2303.8638,389.7228 2304.5112,389.8722 Q2305.1587,390.0216 2305.7231,390.3205 L2305.7231,393.0431 Q2305.0923,392.4621 2304.4988,392.1923 Q2303.9053,391.9225 2303.2744,391.9225 Q2301.9297,391.9225 2301.2449,392.9892 Q2300.5601,394.0558 2300.5601,396.1559 Q2300.5601,398.2477 2301.2449,399.3144 Q2301.9297,400.381 2303.2744,400.381 Q2303.9053,400.381 2304.4988,400.1112 Q2305.0923,399.8415 2305.7231,399.2604 Z " fill="#000000"/><text fill="#000000" font-family="sans-serif" font-size="14" lengthAdjust="spacing" textLength="87" x="2323.75" y="401.131">VideoReader</text><line style="stroke:#181818;stroke-width:0.5;" x1="2256.5" x2="2445.5" y1="411.84" y2="411.84"/><rect fill="none" height="6" style="stroke:#C82930;stroke-width:1.0;" width="6" x="2263.5" y="422.5841"/><text fill="#000000" font-family="sans-serif" font-size="14" lengthAdjust="spacing" textLength="61" x="2275.5" y="429.3752">path : str</text><rect fill="none" height="6" style="stroke:#C82930;stroke-width:1.0;" width="6" x="2263.5" y="439.0724"/><text fill="#000000" font-family="sans-serif" font-size="14" lengthAdjust="spacing" textLength="161" x="2275.5" y="445.8634">video : cv.VideoCapture</text><line style="stroke:#181818;stroke-width:0.5;" x1="2256.5" x2="2445.5" y1="452.8166" y2="452.8166"/><text fill="#000000" font-family="sans-serif" font-size="14" lengthAdjust="spacing" textLength="165" x="2275.5" y="470.3517">__init__(path: str) : None</text><ellipse cx="2266.5" cy="483.049" fill="#84BE84" rx="3" ry="3" style="stroke:#038048;stroke-width:1.0;"/><text fill="#000000" font-family="sans-serif" font-size="14" lengthAdjust="spacing" textLength="142" x="2275.5" y="486.84">next_frame() : Image</text><ellipse cx="2266.5" cy="499.5373" fill="#84BE84" rx="3" ry="3" style="stroke:#038048;stroke-width:1.0;"/><text fill="#000000" font-family="sans-serif" font-size="14" lengthAdjust="spacing" textLength="93" x="2275.5" y="503.3283">close() : None</text></g><!--class MotionVectors--><g id="elem_MotionVectors"><rect codeLine="55" fill="#F1F1F1" height="179.9063" id="MotionVectors" rx="2.5" ry="2.5" style="stroke:#181818;stroke-width:0.5;" width="530" x="22" y="775.16"/><ellipse cx="233.25" cy="791.16" fill="#ADD1B2" rx="11" ry="11" style="stroke:#181818;stroke-width:1.0;"/><path d="M235.7231,797.3031 Q235.1421,797.6019 234.5029,797.7513 Q233.8638,797.9007 233.1582,797.9007 Q230.6514,797.9007 229.3315,796.2489 Q228.0117,794.597 228.0117,791.4759 Q228.0117,788.3465 229.3315,786.6947 Q230.6514,785.0428 233.1582,785.0428 Q233.8638,785.0428 234.5112,785.1922 Q235.1587,785.3416 235.7231,785.6405 L235.7231,788.3631 Q235.0923,787.7821 234.4988,787.5123 Q233.9053,787.2425 233.2744,787.2425 Q231.9297,787.2425 231.2449,788.3092 Q230.5601,789.3758 230.5601,791.4759 Q230.5601,793.5677 231.2449,794.6344 Q231.9297,795.701 233.2744,795.701 Q233.9053,795.701 234.4988,795.4312 Q235.0923,795.1615 235.7231,794.5804 Z " fill="#000000"/><text fill="#000000" font-family="sans-serif" font-size="14" lengthAdjust="spacing" textLength="99" x="253.75" y="796.451">MotionVectors</text><line style="stroke:#181818;stroke-width:0.5;" x1="23" x2="551" y1="807.16" y2="807.16"/><rect fill="none" height="6" style="stroke:#C82930;stroke-width:1.0;" width="6" x="30" y="817.9041"/><text fill="#000000" font-family="sans-serif" font-size="14" lengthAdjust="spacing" textLength="188" x="42" y="824.6952">motion_vectors: np.ndarray</text><line style="stroke:#181818;stroke-width:0.5;" x1="23" x2="551" y1="831.6483" y2="831.6483"/><text fill="#000000" font-family="sans-serif" font-size="14" lengthAdjust="spacing" textLength="504" x="42" y="849.1834">__init__(height: int = None, width: int = None, vectors: any = None) : None</text><ellipse cx="33" cy="861.8807" fill="#84BE84" rx="3" ry="3" style="stroke:#038048;stroke-width:1.0;"/><text fill="#000000" font-family="sans-serif" font-size="14" lengthAdjust="spacing" textLength="461" x="42" y="865.6717">set_vector(block_x: int, block_y: int, x_value: int, y_value: int) : None</text><ellipse cx="33" cy="878.369" fill="#84BE84" rx="3" ry="3" style="stroke:#038048;stroke-width:1.0;"/><text fill="#000000" font-family="sans-serif" font-size="14" lengthAdjust="spacing" textLength="332" x="42" y="882.16">get_vector(block_x: int, block_y: int) : np.ndarray</text><ellipse cx="33" cy="894.8573" fill="#84BE84" rx="3" ry="3" style="stroke:#038048;stroke-width:1.0;"/><text fill="#000000" font-family="sans-serif" font-size="14" lengthAdjust="spacing" textLength="340" x="42" y="898.6483">operator +(other: MotionVectors) : MotionVectors</text><ellipse cx="33" cy="911.3455" fill="#84BE84" rx="3" ry="3" style="stroke:#038048;stroke-width:1.0;"/><text fill="#000000" font-family="sans-serif" font-size="14" lengthAdjust="spacing" textLength="337" x="42" y="915.1366">operator -(other: MotionVectors) : MotionVectors</text><ellipse cx="33" cy="927.8338" fill="#84BE84" rx="3" ry="3" style="stroke:#038048;stroke-width:1.0;"/><text fill="#000000" font-family="sans-serif" font-size="14" lengthAdjust="spacing" textLength="271" x="42" y="931.6248">operator *(scalar: float) : MotionVectors</text><ellipse cx="33" cy="944.3221" fill="#84BE84" rx="3" ry="3" style="stroke:#038048;stroke-width:1.0;"/><text fill="#000000" font-family="sans-serif" font-size="14" lengthAdjust="spacing" textLength="271" x="42" y="948.1131">operator /(scalar: float) : MotionVectors</text></g><!--class Helper--><g id="elem_Helper"><rect codeLine="67" fill="#F1F1F1" height="80.9766" id="Helper" rx="2.5" ry="2.5" style="stroke:#181818;stroke-width:0.5;" width="817" x="586.5" y="824.62"/><ellipse cx="968.25" cy="840.62" fill="#ADD1B2" rx="11" ry="11" style="stroke:#181818;stroke-width:1.0;"/><path d="M970.7231,846.7631 Q970.1421,847.0619 969.5029,847.2113 Q968.8638,847.3607 968.1582,847.3607 Q965.6514,847.3607 964.3315,845.7089 Q963.0117,844.057 963.0117,840.9359 Q963.0117,837.8065 964.3315,836.1547 Q965.6514,834.5028 968.1582,834.5028 Q968.8638,834.5028 969.5112,834.6522 Q970.1587,834.8016 970.7231,835.1005 L970.7231,837.8231 Q970.0923,837.2421 969.4988,836.9723 Q968.9053,836.7025 968.2744,836.7025 Q966.9297,836.7025 966.2449,837.7692 Q965.5601,838.8358 965.5601,840.9359 Q965.5601,843.0277 966.2449,844.0944 Q966.9297,845.161 968.2744,845.161 Q968.9053,845.161 969.4988,844.8912 Q970.0923,844.6215 970.7231,844.0404 Z " fill="#000000"/><text fill="#000000" font-family="sans-serif" font-size="14" lengthAdjust="spacing" textLength="45" x="988.75" y="845.911">Helper</text><line style="stroke:#181818;stroke-width:0.5;" x1="587.5" x2="1402.5" y1="856.62" y2="856.62"/><line style="stroke:#181818;stroke-width:0.5;" x1="587.5" x2="1402.5" y1="864.62" y2="864.62"/><text fill="#000000" font-family="sans-serif" font-size="14" lengthAdjust="spacing" textLength="805" x="592.5" y="882.1552">compute_motion_estimation(prev_frame: Image, next_frame: Image, block_size: int, window_size: int) : MotionVectors</text><text fill="#000000" font-family="sans-serif" font-size="14" lengthAdjust="spacing" textLength="736" x="592.5" y="898.6434">compute_motion_compensation(prev_frame: Image, motion_vectors: MotionVectors, block_size: int) : Image</text></g><!--class Image--><g id="elem_Image"><rect codeLine="75" fill="#F1F1F1" height="196.3945" id="Image" rx="2.5" ry="2.5" style="stroke:#181818;stroke-width:0.5;" width="564" x="2212" y="766.92"/><ellipse cx="2468.75" cy="782.92" fill="#ADD1B2" rx="11" ry="11" style="stroke:#181818;stroke-width:1.0;"/><path d="M2471.2231,789.0631 Q2470.6421,789.3619 2470.0029,789.5113 Q2469.3638,789.6607 2468.6582,789.6607 Q2466.1514,789.6607 2464.8315,788.0089 Q2463.5117,786.357 2463.5117,783.2359 Q2463.5117,780.1065 2464.8315,778.4547 Q2466.1514,776.8028 2468.6582,776.8028 Q2469.3638,776.8028 2470.0112,776.9522 Q2470.6587,777.1016 2471.2231,777.4005 L2471.2231,780.1231 Q2470.5923,779.5421 2469.9988,779.2723 Q2469.4053,779.0025 2468.7744,779.0025 Q2467.4297,779.0025 2466.7449,780.0692 Q2466.0601,781.1358 2466.0601,783.2359 Q2466.0601,785.3277 2466.7449,786.3944 Q2467.4297,787.461 2468.7744,787.461 Q2469.4053,787.461 2469.9988,787.1912 Q2470.5923,786.9215 2471.2231,786.3404 Z " fill="#000000"/><text fill="#000000" font-family="sans-serif" font-size="14" lengthAdjust="spacing" textLength="42" x="2489.25" y="788.211">Image</text><line style="stroke:#181818;stroke-width:0.5;" x1="2213" x2="2775" y1="798.92" y2="798.92"/><ellipse cx="2223" cy="812.6641" fill="none" rx="3" ry="3" style="stroke:#038048;stroke-width:1.0;"/><text fill="#000000" font-family="sans-serif" font-size="14" lengthAdjust="spacing" textLength="125" x="2232" y="816.4552">image: np.ndarray</text><ellipse cx="2223" cy="829.1524" fill="none" rx="3" ry="3" style="stroke:#038048;stroke-width:1.0;"/><text fill="#000000" font-family="sans-serif" font-size="14" lengthAdjust="spacing" textLength="107" x="2232" y="832.9434">color_space: str</text><rect fill="none" height="6" style="stroke:#C82930;stroke-width:1.0;" width="6" x="2220" y="842.6407"/><text fill="#000000" font-family="sans-serif" font-size="14" lengthAdjust="spacing" textLength="186" x="2232" y="849.4317">COLOR_CONVERSIONS: dict</text><line style="stroke:#181818;stroke-width:0.5;" x1="2213" x2="2775" y1="856.3848" y2="856.3848"/><text fill="#000000" font-family="sans-serif" font-size="14" lengthAdjust="spacing" textLength="404" x="2232" y="873.92">__init__(image: np.ndarray, color_space: str = "RGB") : None</text><ellipse cx="2223" cy="886.6173" fill="#84BE84" rx="3" ry="3" style="stroke:#038048;stroke-width:1.0;"/><text fill="#000000" font-family="sans-serif" font-size="14" lengthAdjust="spacing" textLength="538" x="2232" y="890.4083">get_color_spaces(target_space: str) : tuple[np.ndarray, np.ndarray, np.ndarray]</text><ellipse cx="2223" cy="903.1055" fill="#84BE84" rx="3" ry="3" style="stroke:#038048;stroke-width:1.0;"/><text fill="#000000" font-family="sans-serif" font-size="14" lengthAdjust="spacing" textLength="302" x="2232" y="906.8966">switch_color_space(target_space: str) : None</text><ellipse cx="2223" cy="919.5938" fill="#84BE84" rx="3" ry="3" style="stroke:#038048;stroke-width:1.0;"/><text fill="#000000" font-family="sans-serif" font-size="14" lengthAdjust="spacing" textLength="276" x="2232" y="923.3848">print(close_on_key_press = True) : None</text><ellipse cx="2223" cy="936.0821" fill="#84BE84" rx="3" ry="3" style="stroke:#038048;stroke-width:1.0;"/><text fill="#000000" font-family="sans-serif" font-size="14" lengthAdjust="spacing" textLength="226" x="2232" y="939.8731">operator +(other: Image) : Image</text><ellipse cx="2223" cy="952.5704" fill="#84BE84" rx="3" ry="3" style="stroke:#038048;stroke-width:1.0;"/><text fill="#000000" font-family="sans-serif" font-size="14" lengthAdjust="spacing" textLength="223" x="2232" y="956.3614">operator -(other: Image) : Image</text></g><!--class Compresser--><g id="elem_Compresser"><rect codeLine="88" fill="#F1F1F1" height="97.4648" id="Compresser" rx="2.5" ry="2.5" style="stroke:#181818;stroke-width:0.5;" width="555" x="2810.5" y="816.38"/><ellipse cx="3042.25" cy="832.38" fill="#ADD1B2" rx="11" ry="11" style="stroke:#181818;stroke-width:1.0;"/><path d="M3044.7231,838.5231 Q3044.1421,838.8219 3043.5029,838.9713 Q3042.8638,839.1207 3042.1582,839.1207 Q3039.6514,839.1207 3038.3315,837.4689 Q3037.0117,835.817 3037.0117,832.6959 Q3037.0117,829.5665 3038.3315,827.9147 Q3039.6514,826.2628 3042.1582,826.2628 Q3042.8638,826.2628 3043.5112,826.4122 Q3044.1587,826.5616 3044.7231,826.8605 L3044.7231,829.5831 Q3044.0923,829.0021 3043.4988,828.7323 Q3042.9053,828.4625 3042.2744,828.4625 Q3040.9297,828.4625 3040.2449,829.5292 Q3039.5601,830.5958 3039.5601,832.6959 Q3039.5601,834.7877 3040.2449,835.8544 Q3040.9297,836.921 3042.2744,836.921 Q3042.9053,836.921 3043.4988,836.6512 Q3044.0923,836.3815 3044.7231,835.8004 Z " fill="#000000"/><text fill="#000000" font-family="sans-serif" font-size="14" lengthAdjust="spacing" textLength="83" x="3062.75" y="837.671">Compresser</text><line style="stroke:#181818;stroke-width:0.5;" x1="2811.5" x2="3364.5" y1="848.38" y2="848.38"/><line style="stroke:#181818;stroke-width:0.5;" x1="2811.5" x2="3364.5" y1="856.38" y2="856.38"/><ellipse cx="2821.5" cy="870.1241" fill="#84BE84" rx="3" ry="3" style="stroke:#038048;stroke-width:1.0;"/><text fill="#000000" font-family="sans-serif" font-size="14" lengthAdjust="spacing" textLength="241" x="2830.5" y="873.9152">compress(bytes_data: bytes) : bytes</text><ellipse cx="2821.5" cy="886.6124" fill="#84BE84" rx="3" ry="3" style="stroke:#038048;stroke-width:1.0;"/><text fill="#000000" font-family="sans-serif" font-size="14" lengthAdjust="spacing" textLength="287" x="2830.5" y="890.4034">decompress(encoded_bytes: bytes) : bytes</text><ellipse cx="2821.5" cy="903.1007" fill="#84BE84" rx="3" ry="3" style="stroke:#038048;stroke-width:1.0;"/><text fill="#000000" font-family="sans-serif" font-size="14" lengthAdjust="spacing" textLength="529" x="2830.5" y="906.8917">compute_compression_ratio(original_data: bytes, encoded_data: bytes) : float</text></g><!--class Jpeg--><g id="elem_Jpeg"><rect codeLine="94" fill="#F1F1F1" height="476.6953" id="Jpeg" rx="2.5" ry="2.5" style="stroke:#181818;stroke-width:0.5;" width="719" x="1458.5" y="626.76"/><ellipse cx="1798.75" cy="642.76" fill="#ADD1B2" rx="11" ry="11" style="stroke:#181818;stroke-width:1.0;"/><path d="M1801.2231,648.9031 Q1800.6421,649.2019 1800.0029,649.3513 Q1799.3638,649.5007 1798.6582,649.5007 Q1796.1514,649.5007 1794.8315,647.8489 Q1793.5117,646.197 1793.5117,643.0759 Q1793.5117,639.9465 1794.8315,638.2947 Q1796.1514,636.6428 1798.6582,636.6428 Q1799.3638,636.6428 1800.0112,636.7922 Q1800.6587,636.9416 1801.2231,637.2405 L1801.2231,639.9631 Q1800.5923,639.3821 1799.9988,639.1123 Q1799.4053,638.8425 1798.7744,638.8425 Q1797.4297,638.8425 1796.7449,639.9092 Q1796.0601,640.9758 1796.0601,643.0759 Q1796.0601,645.1677 1796.7449,646.2344 Q1797.4297,647.301 1798.7744,647.301 Q1799.4053,647.301 1799.9988,647.0312 Q1800.5923,646.7615 1801.2231,646.1804 Z " fill="#000000"/><text fill="#000000" font-family="sans-serif" font-size="14" lengthAdjust="spacing" textLength="30" x="1819.25" y="648.051">Jpeg</text><line style="stroke:#181818;stroke-width:0.5;" x1="1459.5" x2="2176.5" y1="658.76" y2="658.76"/><rect fill="none" height="6" style="stroke:#C82930;stroke-width:1.0;" width="6" x="1466.5" y="669.5041"/><text fill="#000000" font-family="sans-serif" font-size="14" lengthAdjust="spacing" textLength="214" x="1478.5" y="676.2952">DOWNSAMPLE_FACTOR: int = 2</text><rect fill="none" height="6" style="stroke:#C82930;stroke-width:1.0;" width="6" x="1466.5" y="685.9924"/><text fill="#000000" font-family="sans-serif" font-size="14" lengthAdjust="spacing" textLength="134" x="1478.5" y="692.7834">BLOCK_SIZE: int = 8</text><rect fill="none" height="6" style="stroke:#C82930;stroke-width:1.0;" width="6" x="1466.5" y="702.4807"/><text fill="#000000" font-family="sans-serif" font-size="14" lengthAdjust="spacing" textLength="111" x="1478.5" y="709.2717">SHIFT: int = 128</text><rect fill="none" height="6" style="stroke:#C82930;stroke-width:1.0;" width="6" x="1466.5" y="718.969"/><text fill="#000000" font-family="sans-serif" font-size="14" lengthAdjust="spacing" textLength="337" x="1478.5" y="725.76">QUANTIZATION_MATRIX_LUMINANCE: np.ndarray</text><rect fill="none" height="6" style="stroke:#C82930;stroke-width:1.0;" width="6" x="1466.5" y="735.4573"/><text fill="#000000" font-family="sans-serif" font-size="14" lengthAdjust="spacing" textLength="360" x="1478.5" y="742.2483">QUANTIZATION_MATRIX_CHROMINANCE: np.ndarray</text><rect fill="none" height="6" style="stroke:#C82930;stroke-width:1.0;" width="6" x="1466.5" y="751.9455"/><text fill="#000000" font-family="sans-serif" font-size="14" lengthAdjust="spacing" textLength="115" x="1478.5" y="758.7366">y_rle: np.ndarray</text><rect fill="none" height="6" style="stroke:#C82930;stroke-width:1.0;" width="6" x="1466.5" y="768.4338"/><text fill="#000000" font-family="sans-serif" font-size="14" lengthAdjust="spacing" textLength="124" x="1478.5" y="775.2248">cb_rle: np.ndarray</text><rect fill="none" height="6" style="stroke:#C82930;stroke-width:1.0;" width="6" x="1466.5" y="784.9221"/><text fill="#000000" font-family="sans-serif" font-size="14" lengthAdjust="spacing" textLength="121" x="1478.5" y="791.7131">cr_rle: np.ndarray</text><rect fill="none" height="6" style="stroke:#C82930;stroke-width:1.0;" width="6" x="1466.5" y="801.4104"/><text fill="#000000" font-family="sans-serif" font-size="14" lengthAdjust="spacing" textLength="202" x="1478.5" y="808.2014">original_shape: Tuple[int, int]</text><line style="stroke:#181818;stroke-width:0.5;" x1="1459.5" x2="2176.5" y1="815.1545" y2="815.1545"/><text fill="#000000" font-family="sans-serif" font-size="14" lengthAdjust="spacing" textLength="255" x="1478.5" y="832.6897">__init__(image: Image = None) : None</text><ellipse cx="1469.5" cy="845.387" fill="#84BE84" rx="3" ry="3" style="stroke:#038048;stroke-width:1.0;"/><text fill="#000000" font-family="sans-serif" font-size="14" lengthAdjust="spacing" textLength="200" x="1478.5" y="849.178">encode(image: Image) : None</text><ellipse cx="1469.5" cy="861.8752" fill="#84BE84" rx="3" ry="3" style="stroke:#038048;stroke-width:1.0;"/><text fill="#000000" font-family="sans-serif" font-size="14" lengthAdjust="spacing" textLength="114" x="1478.5" y="865.6663">decode() : Image</text><ellipse cx="1469.5" cy="878.3635" fill="#84BE84" rx="3" ry="3" style="stroke:#038048;stroke-width:1.0;"/><text fill="#000000" font-family="sans-serif" font-size="14" lengthAdjust="spacing" textLength="241" x="1478.5" y="882.1545">load_from_file(filename: str) : None</text><rect fill="#F24D5C" height="6" style="stroke:#C82930;stroke-width:1.0;" width="6" x="1466.5" y="891.8518"/><text fill="#000000" font-family="sans-serif" font-size="14" lengthAdjust="spacing" textLength="454" x="1478.5" y="898.6428">_downsample_matrix(matrix: np.ndarray, dtype: type) : np.ndarray</text><rect fill="#F24D5C" height="6" style="stroke:#C82930;stroke-width:1.0;" width="6" x="1466.5" y="908.3401"/><text fill="#000000" font-family="sans-serif" font-size="14" lengthAdjust="spacing" textLength="434" x="1478.5" y="915.1311">_upsample_matrix(matrix: np.ndarray, dtype: type) : np.ndarray</text><rect fill="#F24D5C" height="6" style="stroke:#C82930;stroke-width:1.0;" width="6" x="1466.5" y="924.8284"/><text fill="#000000" font-family="sans-serif" font-size="14" lengthAdjust="spacing" textLength="481" x="1478.5" y="931.6194">_blockproc(matrix: np.ndarray, func: callable, dtype: type) : np.ndarray</text><rect fill="#F24D5C" height="6" style="stroke:#C82930;stroke-width:1.0;" width="6" x="1466.5" y="941.3166"/><text fill="#000000" font-family="sans-serif" font-size="14" lengthAdjust="spacing" textLength="380" x="1478.5" y="948.1077">_apply_dct(matrix: np.ndarray, dtype: type) : np.ndarray</text><rect fill="#F24D5C" height="6" style="stroke:#C82930;stroke-width:1.0;" width="6" x="1466.5" y="957.8049"/><text fill="#000000" font-family="sans-serif" font-size="14" lengthAdjust="spacing" textLength="384" x="1478.5" y="964.5959">_apply_idct(matrix: np.ndarray, dtype: type) : np.ndarray</text><rect fill="#F24D5C" height="6" style="stroke:#C82930;stroke-width:1.0;" width="6" x="1466.5" y="974.2932"/><text fill="#000000" font-family="sans-serif" font-size="14" lengthAdjust="spacing" textLength="676" x="1478.5" y="981.0842">_apply_quantization(matrix: np.ndarray, quantization_matrix: np.ndarray, dtype: type) : np.ndarray</text><rect fill="#F24D5C" height="6" style="stroke:#C82930;stroke-width:1.0;" width="6" x="1466.5" y="990.7815"/><text fill="#000000" font-family="sans-serif" font-size="14" lengthAdjust="spacing" textLength="693" x="1478.5" y="997.5725">_apply_dequantization(matrix: np.ndarray, quantization_matrix: np.ndarray, dtype: type) : np.ndarray</text><rect fill="#F24D5C" height="6" style="stroke:#C82930;stroke-width:1.0;" width="6" x="1466.5" y="1007.2698"/><text fill="#000000" font-family="sans-serif" font-size="14" lengthAdjust="spacing" textLength="405" x="1478.5" y="1014.0608">_apply_zigzag(matrix: np.ndarray, dtype: type) : np.ndarray</text><rect fill="#F24D5C" height="6" style="stroke:#C82930;stroke-width:1.0;" width="6" x="1466.5" y="1023.758"/><text fill="#000000" font-family="sans-serif" font-size="14" lengthAdjust="spacing" textLength="664" x="1478.5" y="1030.5491">_apply_izigzag(zigzag_matrix: np.ndarray, matrix_shape: Tuple[int, int], dtype: type) : np.ndarray</text><rect fill="#F24D5C" height="6" style="stroke:#C82930;stroke-width:1.0;" width="6" x="1466.5" y="1040.2463"/><text fill="#000000" font-family="sans-serif" font-size="14" lengthAdjust="spacing" textLength="338" x="1478.5" y="1047.0373">_apply_dc_subtraction(matrix: np.ndarray) : None</text><rect fill="#F24D5C" height="6" style="stroke:#C82930;stroke-width:1.0;" width="6" x="1466.5" y="1056.7346"/><text fill="#000000" font-family="sans-serif" font-size="14" lengthAdjust="spacing" textLength="317" x="1478.5" y="1063.5256">_apply_dc_addition(matrix: np.ndarray) : None</text><rect fill="#F24D5C" height="6" style="stroke:#C82930;stroke-width:1.0;" width="6" x="1466.5" y="1073.2229"/><text fill="#000000" font-family="sans-serif" font-size="14" lengthAdjust="spacing" textLength="377" x="1478.5" y="1080.0139">_apply_rle(matrix: np.ndarray, dtype: type) : np.ndarray</text><rect fill="#F24D5C" height="6" style="stroke:#C82930;stroke-width:1.0;" width="6" x="1466.5" y="1089.7112"/><text fill="#000000" font-family="sans-serif" font-size="14" lengthAdjust="spacing" textLength="394" x="1478.5" y="1096.5022">_apply_irle(rle_rows: np.ndarray, dtype: type) : np.ndarray</text></g><!--link VideoEncoder to Encoder--><g id="link_VideoEncoder_Encoder"><path codeLine="125" d="M2247.22,242.93 C2192.65,279.61 2130.4397,321.433 2073.5597,359.663 " fill="none" id="VideoEncoder-to-Encoder" style="stroke:#181818;stroke-width:1.0;"/><polygon fill="#181818" points="2068.58,363.01,2078.2809,361.3094,2072.7298,360.2209,2073.8183,354.6697,2068.58,363.01" style="stroke:#181818;stroke-width:1.0;"/></g><!--link VideoEncoder to VideoReader--><g id="link_VideoEncoder_VideoReader"><path codeLine="126" d="M2351,303.46 C2351,329.89 2351,350.58 2351,373.5 " fill="none" id="VideoEncoder-to-VideoReader" style="stroke:#181818;stroke-width:1.0;"/><polygon fill="#181818" points="2351,379.5,2355,370.5,2351,374.5,2347,370.5,2351,379.5" style="stroke:#181818;stroke-width:1.0;"/></g><!--link VideoEncoder to Transmitter--><g id="link_VideoEncoder_Transmitter"><path codeLine="127" d="M2454.7,291.2 C2478.62,318.43 2499.4297,342.1127 2521.0797,366.7527 " fill="none" id="VideoEncoder-to-Transmitter" style="stroke:#181818;stroke-width:1.0;"/><polygon fill="#181818" points="2525.04,371.26,2522.1043,361.8588,2521.7397,367.5039,2516.0946,367.1393,2525.04,371.26" style="stroke:#181818;stroke-width:1.0;"/></g><!--link Encoder to Image--><g id="link_Encoder_Image"><path codeLine="129" d="M2107.05,527.16 C2137.09,544.57 2167.65,563.78 2195,583.76 C2269.55,638.23 2341.1134,705.2413 2397.7334,762.2913 " fill="none" id="Encoder-to-Image" style="stroke:#181818;stroke-width:1.0;"/><polygon fill="#181818" points="2401.96,766.55,2398.4593,757.3443,2398.4379,763.0011,2392.7811,762.9797,2401.96,766.55" style="stroke:#181818;stroke-width:1.0;"/></g><!--link Encoder to Jpeg--><g id="link_Encoder_Jpeg"><path codeLine="130" d="M1922.78,527.16 C1913.74,556.24 1904.802,584.9707 1893.732,620.5607 " fill="none" id="Encoder-to-Jpeg" style="stroke:#181818;stroke-width:1.0;"/><polygon fill="#181818" points="1891.95,626.29,1898.4426,618.8841,1893.435,621.5156,1890.8036,616.5081,1891.95,626.29" style="stroke:#181818;stroke-width:1.0;"/></g><!--link Encoder to MotionVectors--><g id="link_Encoder_MotionVectors"><path codeLine="131" d="M1675.05,451.81 C1330.2,462.75 758.77,494.19 569,583.76 C478.94,626.27 404.5486,705.1734 353.5186,770.0734 " fill="none" id="Encoder-to-MotionVectors" style="stroke:#181818;stroke-width:1.0;"/><polygon fill="#181818" points="349.81,774.79,358.5173,770.1875,352.9005,770.8595,352.2285,765.2427,349.81,774.79" style="stroke:#181818;stroke-width:1.0;"/></g><!--link Encoder to Helper--><g id="link_Encoder_Helper"><path codeLine="132" d="M1675.31,504.78 C1598.59,525.47 1516.15,551.74 1443,583.76 C1290.03,650.74 1132.9478,760.6039 1052.1278,820.5939 " fill="none" id="Encoder-to-Helper" style="stroke:#181818;stroke-width:1.0;stroke-dasharray:7.0,7.0;"/><polygon fill="#181818" points="1047.31,824.17,1056.9208,822.0177,1051.3249,821.1899,1052.1527,815.594,1047.31,824.17" style="stroke:#181818;stroke-width:1.0;"/><text fill="#000000" font-family="sans-serif" font-size="13" lengthAdjust="spacing" textLength="29" x="1496" y="572.3284">uses</text></g><!--link VideoReader to Image--><g id="link_VideoReader_Image"><path codeLine="134" d="M2373.03,510.46 C2396.42,578.83 2431.708,682.003 2458.698,760.903 " fill="none" id="VideoReader-to-Image" style="stroke:#181818;stroke-width:1.0;"/><polygon fill="#181818" points="2460.64,766.58,2461.5117,756.7698,2459.0217,761.8491,2453.9423,759.3591,2460.64,766.58" style="stroke:#181818;stroke-width:1.0;"/></g><!--link Transmitter to Compresser--><g id="link_Transmitter_Compresser"><path codeLine="135" d="M2696.48,513.76 C2728.34,535.1 2762.77,559.48 2793,583.76 C2886.63,659 2981.8244,753.6314 3038.0144,811.6114 " fill="none" id="Transmitter-to-Compresser" style="stroke:#181818;stroke-width:1.0;stroke-dasharray:7.0,7.0;"/><polygon fill="#181818" points="3042.19,815.92,3038.799,806.6733,3038.7103,812.3295,3033.0542,812.2408,3042.19,815.92" style="stroke:#181818;stroke-width:1.0;"/><text fill="#000000" font-family="sans-serif" font-size="13" lengthAdjust="spacing" textLength="29" x="2783" y="572.3284">uses</text></g><!--SRC=[lLXRZ-8s57xdLrZpb7Q0gljGLKXTYMMP3kq0sy1EgwrMbaaCk1FYr7QOOQhzxprsGh0JXyvbLJIJE3xdVFQvEyb8T4Ss55tGDE8nIpSNw9zE1y4lIeYKw9R5b8yrZGgWeFBNGrVXS3h6y_3zE4G3b32fB696r1PcfHBM92rH1gZ4isY2ae9arWlDaqLMWgHonvGoFClJayMp5cH7SSJpjE1YgMfGL_bwROYr_KO99U94NN6UM5H9qxWcMb4nPYbJ60TQPQFnDy0puocjM2vBpN5A7nGs6maq4qaF5ezPfCPHWuaIBck4BxQlV6u2Wi9tz52WoeRcguH7TrYoHrgts3rBOtvlaPewruJHJ-Zx7xeDGPZ-iTqem218gNEK2r4C1sYoWx3KOhzaTDCKomIDMQHeV4vKvLb2_zG0NJJbYl7qbaQA2_cv2RXYCHD01IQIl0BKyOWLgOvN55Um2BXSrQqUyHse9YKL0pIgnaweCX334YnFGRguzukRnqKUm-j82_ZgBnE1BmWpAqKTfRn9lzVCC1lj-qPkH3AL2_hC1AhbXV75V-uO_h9ZTTiPHzLgc-CzHvM27UyBqW2bMJ-DYH3auDdubhBDLXr3NUz0vq2ijR6dAZ2mUZdfTOugbospwy6WTCj4FPHF3tXFafoMJmVhoOEvUGgcbhFKF4dpZ0e2ikWou6ghuzAncvPp9doYlPUBVXl8Y2G4PDS99-f9CjyzHSQ9wMkQP4uuwppC5SLb952fs8xeOG0fkNUAGjSApsggLXgRLR5TaThI-f6cidNnUgmwe8sDkEbJonAc2HUb5Gh365xBBfV8CBN4IiGJBh04G5el1AFvpJp4e_diTXmk9lFPOe1q0QyucddLMAZRm8SykWX_VdVH4lGMkmmK4Nhk97mgvlOI_h7TCEGzKz7M1lTZrpQK2J1_O4eL1d_fdcogE-Ym5Bcl5ZGphsf2zGhOp3GFgnFnf-RYUFVOVuBLGL69Ow88d8VqM6EPWSKTqug_QADmJj8iPqIEqNqKrB4hT707NB0DqytNMhIBZhYrdPZ4Rcgbsx9JoT_FVvyjXjCFDsDyDHmjv-6nAB-ncDxTp4U_uiNaqxWwi5ZKnVNaQbaTSDxOfDy-3cVBoQVX4W8QJuVBSF87llaudSo6iz7OcoD-cT5rE3ylTS0YeIsqQ7MEACuGAvFBBSc0QMdImTGhk7pkj2PbKHPQkrZXD8VPmwMZ9_PtTF2kFjdn7LwpX0RwafgYvykj7i9GMg54xc3t6CgqO0z1SNFBHwmEMajzRMbt09LdNmd8LDvCyCWBiSxJ28v594d8Ag5FX2HPbXnm7AcNxwg0O5y1u- -Sf8ez5et9XsKpu5Sk5jF_TRb7jdaacrTRkOGfRjuz5NCj-VVCgC0oNy7BLDHY8L_ULA8aZjcpvQ2mlDf46WF-iU3tyZaeN_J9nVawqUkzhRuiD0ZsTuK6qVwWqB49HLcoPypRg3tXdk6Eb7x_xV5CEK2vX0xOiL-RJjZs6w8MijfoAVWl]--></g></svg>